<svg width="512" height="128" viewBox="0 0 512 128" fill="none" xmlns="http://www.w3.org/2000/svg">
<path fill-rule="evenodd" clip-rule="evenodd" d="M127.938 58.9485C130.445 70.9075 129.284 82.0302 125.233 91.3055L125.448 91.3015C121.975 100.807 110.422 120.695 83.2231 126.398C82.1881 126.615 81.1557 126.787 80.1247 126.916C77.5299 127.297 74.837 127.495 72.0593 127.495C39.8474 127.495 8.1761 100.98 1.3191 68.2703C-1.94706 52.6906 1.00595 38.5157 8.47574 27.9422C11.9453 21.2635 30.1482 5.06586 44.8377 1.91843C45.2354 1.83322 45.6177 1.76643 45.9853 1.7174C49.8677 0.771847 54.0088 0.272766 58.3684 0.272766C89.9963 0.272766 121.145 26.5428 127.938 58.9485ZM116.865 56.2066C122.198 81.6472 106.384 102.269 81.5427 102.269C56.7022 102.269 32.2411 81.6472 26.908 56.2066C21.5747 30.7666 37.3888 10.1433 62.2299 10.1433C87.0702 10.1433 111.531 30.7666 116.865 56.2066ZM80.028 88.0123C98.4142 88.0123 110.195 73.1114 106.342 54.7294C102.489 36.3479 84.4595 21.4466 66.073 21.4466C47.6865 21.4466 35.9052 36.3479 39.7587 54.7294C43.6122 73.1114 61.6413 88.0123 80.028 88.0123ZM96.4065 53.3501C98.8237 64.8812 91.2328 74.2286 79.4502 74.2286C67.6689 74.2286 56.1579 64.8812 53.7406 53.3501C51.3232 41.8189 58.9145 32.4711 70.697 32.4711C82.4783 32.4711 93.9893 41.8189 96.4065 53.3501ZM85.6032 53.3503C86.7959 59.0414 83.0495 63.6549 77.2344 63.6549C71.4193 63.6549 65.7388 59.0414 64.5457 53.3503C63.3526 47.6593 67.099 43.0458 72.9141 43.0458C78.7292 43.0458 84.4105 47.6593 85.6032 53.3503Z" fill="black"/>
<path d="M213.167 93.0389C213.167 93.7704 213.761 94.3641 214.492 94.3641H224.567C225.298 94.3641 225.892 93.7704 225.892 93.0389V44.6555H214.492C213.761 44.6555 213.167 45.2488 213.167 45.9807V93.0389Z" fill="black"/>
<path d="M213.578 36.7828C214.799 38.0644 216.659 38.7052 219.161 38.7052C221.663 38.7052 223.495 38.0644 224.654 36.7828C225.814 35.4402 226.393 33.7924 226.393 31.8394C226.393 29.7645 225.814 28.0861 224.654 26.8046C223.495 25.523 221.663 24.8821 219.161 24.8821C216.659 24.8821 214.799 25.523 213.578 26.8046C212.418 28.0861 211.838 29.7645 211.838 31.8394C211.838 33.7924 212.418 35.4402 213.578 36.7828Z" fill="black"/>
<path fill-rule="evenodd" clip-rule="evenodd" d="M193.11 71.1117C189.203 72.9431 184.443 73.8575 178.829 73.8575H168.759V93.0389C168.759 93.7704 168.165 94.3641 167.433 94.3641H157.085C156.353 94.3641 155.76 93.7704 155.76 93.0389V28.4044C155.76 27.6725 156.353 27.0792 157.085 27.0792H167.433C167.577 27.0792 167.714 27.1018 167.843 27.1437C167.973 27.1018 168.111 27.0792 168.254 27.0792H178.829C184.443 27.0792 189.203 27.9946 193.11 29.8254C197.076 31.6564 200.098 34.2806 202.172 37.6982C204.247 41.0548 205.285 45.0522 205.285 49.6904V51.1552C205.285 55.7933 204.247 59.8212 202.172 63.2389C200.098 66.5953 197.076 69.2192 193.11 71.1117ZM186.518 39.8952C184.749 38.8578 182.552 38.339 179.928 38.339H168.759V62.5981H179.928C182.552 62.5981 184.749 62.0793 186.518 61.0418C188.35 60.0044 189.723 58.5701 190.638 56.7393C191.615 54.9083 192.103 52.8029 192.103 50.4227C192.103 48.0426 191.615 45.9371 190.638 44.1063C189.723 42.2753 188.35 40.8718 186.518 39.8952Z" fill="black"/>
<path d="M237.305 94.3641C236.573 94.3641 235.98 93.7704 235.98 93.0389V45.9808C235.98 45.2488 236.573 44.6555 237.305 44.6555H244.725C245.456 44.6555 246.05 45.2488 246.05 45.9808V56.9049C246.344 55.63 246.71 54.4457 247.149 53.3521C248.491 49.9345 250.474 47.3713 253.099 45.6624C255.784 43.9537 259.11 43.0992 263.077 43.0992H263.625C269.546 43.0992 274.031 45.0217 277.083 48.8664C280.134 52.6502 281.66 58.3259 281.66 65.8935V93.0389C281.66 93.7704 281.067 94.3641 280.335 94.3641H270.261C269.529 94.3641 268.936 93.7704 268.936 93.0389V64.7951C268.936 61.7436 268.05 59.2719 266.281 57.38C264.572 55.4881 262.191 54.5421 259.141 54.5421C256.028 54.5421 253.495 55.5187 251.542 57.4716C249.651 59.3635 248.705 61.9267 248.705 65.1612V93.0389C248.705 93.7704 248.111 94.3641 247.379 94.3641H237.305Z" fill="black"/>
<path fill-rule="evenodd" clip-rule="evenodd" d="M329.12 71.1117C325.214 72.9431 320.454 73.8575 314.839 73.8575H304.77V93.0389C304.77 93.7704 304.176 94.3641 303.445 94.3641H293.095C292.363 94.3641 291.769 93.7704 291.769 93.0389V28.4044C291.769 27.6725 292.363 27.0792 293.095 27.0792H303.445C303.586 27.0792 303.724 27.1018 303.854 27.1437C303.983 27.1018 304.12 27.0792 304.264 27.0792H314.839C320.454 27.0792 325.214 27.9946 329.12 29.8254C333.086 31.6564 336.107 34.2806 338.183 37.6982C340.258 41.0548 341.294 45.0522 341.294 49.6904V51.1552C341.294 55.7933 340.258 59.8212 338.183 63.2389C336.107 66.5953 333.086 69.2192 329.12 71.1117ZM322.529 39.8952C320.759 38.8578 318.561 38.339 315.938 38.339H304.77V62.5981H315.938C318.561 62.5981 320.759 62.0793 322.529 61.0418C324.359 60.0044 325.732 58.5701 326.648 56.7393C327.625 54.9083 328.112 52.8029 328.112 50.4227C328.112 48.0426 327.625 45.9371 326.648 44.1063C325.732 42.2753 324.359 40.8718 322.529 39.8952Z" fill="black"/>
<path fill-rule="evenodd" clip-rule="evenodd" d="M369.617 96.1028C365.224 96.1028 361.348 95.4017 357.991 93.997C354.636 92.5936 351.797 90.7025 349.478 88.3224C347.159 85.88 345.389 83.1341 344.169 80.0834C343.009 77.0314 342.429 73.8575 342.429 70.5616V68.64C342.429 65.2223 343.04 61.9877 344.26 58.9362C345.542 55.8237 347.341 53.0775 349.661 50.6974C352.041 48.2561 354.91 46.3643 358.267 45.0217C361.623 43.618 365.407 42.9161 369.617 42.9161C373.829 42.9161 377.612 43.618 380.969 45.0217C384.326 46.3643 387.163 48.2561 389.482 50.6974C391.863 53.0775 393.664 55.8237 394.884 58.9362C396.105 61.9877 396.714 65.2223 396.714 68.64V70.5616C396.714 73.8575 396.105 77.0314 394.884 80.0834C393.725 83.1341 391.985 85.88 389.665 88.3224C387.346 90.7025 384.509 92.5936 381.152 93.997C377.795 95.4017 373.951 96.1028 369.617 96.1028ZM369.617 85.2094C372.73 85.2094 375.354 84.5375 377.49 83.195C379.627 81.7916 381.244 79.9297 382.342 77.6105C383.441 75.2304 383.989 72.5455 383.989 69.5558C383.989 66.5039 383.41 63.8186 382.251 61.4994C381.152 59.1193 379.505 57.2579 377.308 55.9153C375.171 54.5116 372.608 53.8098 369.617 53.8098C366.628 53.8098 364.034 54.5116 361.837 55.9153C359.701 57.2579 358.053 59.1193 356.894 61.4994C355.734 63.8186 355.154 66.5039 355.154 69.5558C355.154 72.5455 355.704 75.2304 356.801 77.6105C357.961 79.9297 359.609 81.7916 361.745 83.195C363.88 84.5375 366.506 85.2094 369.617 85.2094Z" fill="black"/>
<path d="M405.66 93.0389C405.66 93.7704 406.253 94.3641 406.985 94.3641H417.059C417.791 94.3641 418.384 93.7704 418.384 93.0389V44.6555H406.985C406.253 44.6555 405.66 45.2488 405.66 45.9807V93.0389Z" fill="black"/>
<path d="M406.069 36.7828C407.29 38.0644 409.152 38.7052 411.654 38.7052C414.156 38.7052 415.986 38.0644 417.145 36.7828C418.305 35.4402 418.885 33.7924 418.885 31.8394C418.885 29.7645 418.305 28.0861 417.145 26.8046C415.986 25.523 414.156 24.8821 411.654 24.8821C409.152 24.8821 407.29 25.523 406.069 26.8046C404.91 28.0861 404.33 29.7645 404.33 31.8394C404.33 33.7924 404.91 35.4402 406.069 36.7828Z" fill="black"/>
<path d="M429.797 94.3641C429.064 94.3641 428.472 93.7704 428.472 93.0389V45.9808C428.472 45.2488 429.064 44.6555 429.797 44.6555H437.216C437.947 44.6555 438.541 45.2488 438.541 45.9808V56.9049C438.837 55.6299 439.202 54.4457 439.64 53.3521C440.982 49.9345 442.966 47.3713 445.59 45.6624C448.275 43.9537 451.601 43.0992 455.569 43.0992H456.118C462.037 43.0992 466.523 45.0217 469.574 48.8664C472.626 52.6502 474.151 58.3259 474.151 65.8935V93.0389C474.151 93.7704 473.559 94.3641 472.826 94.3641H462.753C462.02 94.3641 461.428 93.7704 461.428 93.0389V64.7951C461.428 61.7436 460.543 59.2719 458.772 57.38C457.064 55.4881 454.684 54.5421 451.632 54.5421C448.52 54.5421 445.986 55.5187 444.034 57.4716C442.142 59.3635 441.196 61.9267 441.196 65.1612V93.0389C441.196 93.7704 440.603 94.3641 439.87 94.3641H429.797Z" fill="black"/>
<path d="M493.508 93.2655C496.497 94.4251 500.282 95.0042 504.86 95.0042H510.675C511.406 95.0042 512 94.4105 512 93.679V85.436C512 84.7045 511.406 84.1108 510.675 84.1108H504.218C501.777 84.1108 499.885 83.4694 498.542 82.1879C497.261 80.8454 496.621 78.9543 496.621 76.5132L496.664 53.993H510.675C511.406 53.993 512 53.3995 512 52.6677V45.9807C512 45.2488 511.406 44.6555 510.675 44.6555H496.683L496.709 31.9772C496.711 31.2442 496.117 30.6493 495.384 30.6493H486.134C485.403 30.6493 484.81 31.241 484.809 31.9719L484.782 44.6555H478.172C477.441 44.6555 476.847 45.2488 476.847 45.9807V52.6677C476.847 53.3995 477.441 53.993 478.172 53.993H484.764L484.719 75.689C484.719 80.5101 485.452 84.3546 486.916 87.2238C488.382 90.0306 490.578 92.0449 493.508 93.2655Z" fill="black"/>
</svg>
