<svg width="512" height="130" viewBox="0 0 512 130" fill="none" xmlns="http://www.w3.org/2000/svg">
<path d="M196.325 36.2466V128.531H173.845V90.5391H138.876V128.531H116.396V36.2466H138.876V72.398H173.845V36.2466H196.325Z" fill="black"/>
<path d="M218.6 47.5519C214.655 47.5519 211.413 46.4126 208.872 44.134C206.418 41.7677 205.191 38.8755 205.191 35.4576C205.191 31.9521 206.418 29.0599 208.872 26.7812C211.413 24.415 214.655 23.2319 218.6 23.2319C222.456 23.2319 225.612 24.415 228.064 26.7812C230.607 29.0599 231.877 31.9521 231.877 35.4576C231.877 38.8755 230.607 41.7677 228.064 44.134C225.612 46.4126 222.456 47.5519 218.6 47.5519ZM229.774 55.1766V128.531H207.294V55.1766H229.774Z" fill="black"/>
<path d="M281.69 109.47V128.531H270.253C262.102 128.531 255.749 126.559 251.192 122.616C246.635 118.584 244.357 112.056 244.357 103.028V73.8441H235.417V55.1767H244.357V37.2981H266.836V55.1767H281.559V73.8441H266.836V103.291C266.836 105.483 267.362 107.059 268.413 108.024C269.465 108.988 271.218 109.47 273.672 109.47H281.69Z" fill="black"/>
<path d="M358.102 90.6705C358.102 92.7739 357.97 94.9655 357.707 97.2436H306.832C307.183 101.801 308.629 105.307 311.17 107.761C313.799 110.127 316.998 111.311 320.766 111.311C326.377 111.311 330.276 108.943 332.468 104.211H356.392C355.165 109.031 352.93 113.37 349.688 117.226C346.533 121.082 342.546 124.106 337.725 126.296C332.905 128.488 327.516 129.584 321.556 129.584C314.37 129.584 307.971 128.049 302.362 124.983C296.754 121.915 292.372 117.533 289.216 111.836C286.062 106.14 284.484 99.4784 284.484 91.8544C284.484 84.2287 286.019 77.5688 289.085 71.8722C292.241 66.1755 296.622 61.7935 302.231 58.7261C307.84 55.6587 314.281 54.1251 321.556 54.1251C328.655 54.1251 334.965 55.615 340.486 58.5948C346.008 61.5745 350.301 65.825 353.369 71.3464C356.524 76.8676 358.102 83.3092 358.102 90.6705ZM335.096 84.7558C335.096 80.8991 333.781 77.8317 331.152 75.553C328.523 73.2744 325.236 72.1351 321.293 72.1351C317.524 72.1351 314.326 73.2305 311.696 75.4216C309.155 77.6125 307.577 80.7238 306.963 84.7558H335.096Z" fill="black"/>
<path d="M360.233 91.8544C360.233 84.2287 361.766 77.5688 364.834 71.8722C367.989 66.1755 372.327 61.7935 377.849 58.7261C383.458 55.6587 389.855 54.1251 397.041 54.1251C406.243 54.1251 413.912 56.5352 420.046 61.3554C426.27 66.1755 430.344 72.9676 432.273 81.7317H408.347C406.331 76.1227 402.432 73.3181 396.647 73.3181C392.528 73.3181 389.241 74.9396 386.788 78.1822C384.334 81.3372 383.107 85.8948 383.107 91.8544C383.107 97.8139 384.334 102.415 386.788 105.657C389.241 108.812 392.528 110.39 396.647 110.39C402.432 110.39 406.331 107.586 408.347 101.976H432.273C430.344 110.566 426.27 117.314 420.046 122.221C413.824 127.129 406.157 129.584 397.041 129.584C389.855 129.584 383.458 128.049 377.849 124.983C372.327 121.915 367.989 117.533 364.834 111.836C361.766 106.14 360.233 99.4784 360.233 91.8544Z" fill="black"/>
<path d="M484.13 54.3879C492.543 54.3879 499.291 57.1924 504.374 62.8013C509.458 68.3226 512 75.9473 512 85.6753V128.531H489.652V88.6983C489.652 83.7913 488.38 79.9788 485.839 77.2619C483.297 74.5451 479.879 73.1867 475.584 73.1867C471.291 73.1867 467.872 74.5451 465.332 77.2619C462.789 79.9788 461.519 83.7913 461.519 88.6983V128.531H439.039V31.2509H461.519V65.0361C463.797 61.7934 466.908 59.2081 470.852 57.2801C474.796 55.3519 479.223 54.3879 484.13 54.3879Z" fill="black"/>
<path d="M0 80.2928V0.494873H26.605V41.5148C31.2484 39.7223 36.2946 38.7396 41.5704 38.7396C64.529 38.7396 83.1401 57.3513 83.1401 80.31V128.531H56.5357V80.31C56.5357 72.0449 49.8354 65.3446 41.5704 65.3446C33.3088 65.3446 26.6108 72.039 26.605 80.299C26.605 80.3026 26.605 80.3063 26.605 80.31V128.531H0V80.31C0 80.3043 0 80.2985 0 80.2928Z" fill="black"/>
<path d="M56.5356 27.0999V0.494873H83.14V27.0999H56.5356Z" fill="black"/>
</svg>
