<svg width="512" height="512" viewBox="0 0 512 512" fill="none" xmlns="http://www.w3.org/2000/svg">
<path d="M512 483.743C512 499.347 499.346 512 483.742 512H353.271V313.728H419.825L429.789 236.457H353.271V187.122C353.271 164.75 359.482 149.505 391.565 149.505L432.484 149.486V80.3753C425.405 79.4353 401.117 77.3309 372.859 77.3309C313.863 77.3309 273.476 113.34 273.476 179.472V236.457H206.753V313.728H273.476V512H28.2576C12.6478 512 0 499.347 0 483.743V28.2593C0 12.6496 12.6478 0 28.2576 0H483.742C499.346 0 512 12.6496 512 28.2593V483.743Z" fill="black"/>
</svg>
