<svg width="512" height="116" viewBox="0 0 512 116" fill="none" xmlns="http://www.w3.org/2000/svg">
<path d="M138.259 95.4824L144.009 94.0451V32.7181L138.259 31.2807V29.8434H164.132C173.841 29.8434 180.965 31.4085 185.5 34.5388C190.1 37.6051 192.399 41.6297 192.399 46.6123C192.399 50.0623 191.409 52.8411 189.429 54.9487C187.449 57.0572 184.925 58.6221 181.859 59.6445C178.601 60.7945 175.087 61.4009 171.318 61.4648V61.9445C175.982 62.136 180.038 62.8382 183.488 64.052C187.001 65.202 189.908 66.9913 192.208 69.4181C194.571 71.8458 195.753 74.9446 195.753 78.713C195.753 84.3991 193.421 88.8705 188.758 92.129C184.095 95.3228 176.524 96.9196 166.048 96.9196H138.259V95.4824ZM164.132 60.5072C166.24 60.5072 168.188 59.9317 169.976 58.7817C171.829 57.5679 173.299 55.9072 174.385 53.7996C175.535 51.6273 176.109 49.2315 176.109 46.6123C176.109 43.8017 175.535 41.3103 174.385 39.1382C173.299 36.9663 171.829 35.2734 169.976 34.0596C168.188 32.8459 166.24 32.239 164.132 32.239H159.82V60.5072H164.132ZM166.048 94.5239C170.008 94.5239 173.235 93.1185 175.726 90.3078C178.218 87.4971 179.463 83.6321 179.463 78.713C179.463 73.7947 178.218 69.9297 175.726 67.119C173.235 64.3083 170.008 62.902 166.048 62.902H159.82V94.5239H166.048Z" fill="black"/>
<path d="M197.639 95.4824L203.389 94.0451V32.7181L197.639 31.2807V29.8434H210.097C215.846 29.8434 218.721 32.7181 218.721 38.4675V94.0451L224.471 95.4824V96.9196H197.639V95.4824Z" fill="black"/>
<path d="M250.807 98.3568C242.886 98.3568 236.657 96.1215 232.121 91.6492C227.649 87.1139 225.414 80.8851 225.414 72.9637C225.414 65.0423 227.649 58.8454 232.121 54.374C236.657 49.8388 242.886 47.5707 250.807 47.5707C258.728 47.5707 264.924 49.8388 269.397 54.374C273.932 58.8454 276.2 65.0423 276.2 72.9637C276.2 80.8851 273.932 87.1139 269.397 91.6492C264.924 96.1215 258.728 98.3568 250.807 98.3568ZM250.807 96.4407C253.362 96.4407 255.502 94.6514 257.227 91.0746C259.016 87.497 259.91 81.4597 259.91 72.9637C259.91 64.4678 259.016 58.4305 257.227 54.8528C255.502 51.276 253.362 49.4868 250.807 49.4868C248.252 49.4868 246.079 51.276 244.291 54.8528C242.565 58.4305 241.704 64.4678 241.704 72.9637C241.704 81.4597 242.565 87.497 244.291 91.0746C246.079 94.6514 248.252 96.4407 250.807 96.4407Z" fill="black"/>
<path d="M301.627 98.3568C297.666 98.3568 294.12 97.4949 290.99 95.7695C289.457 94.9396 288.212 94.0449 287.253 93.0865C286.231 94.4918 285.114 95.578 283.9 96.3449C283.324 96.728 282.686 97.0791 281.983 97.3992H279.587V81.1086H283.42C284.251 83.7916 285.465 86.2831 287.062 88.5831C290.448 93.5023 294.664 95.961 299.711 95.961C302.394 95.961 304.406 95.3226 305.747 94.0449C307.152 92.7034 307.856 90.7873 307.856 88.2958C307.856 86.1874 306.897 84.4309 304.981 83.0255C303.128 81.5563 300.189 79.7671 296.165 77.6595C292.715 75.934 289.904 74.401 287.733 73.0595C285.624 71.6541 283.804 69.9296 282.27 67.8849C280.801 65.7774 280.067 63.3178 280.067 60.507C280.067 56.674 281.696 53.5751 284.953 51.2122C288.275 48.7845 293.354 47.5707 300.189 47.5707C303.575 47.5707 306.706 48.4653 309.58 50.2537C310.985 51.0845 312.199 51.9463 313.222 52.841C314.051 51.691 315.17 50.6048 316.575 49.5825C317.661 48.9441 318.3 48.593 318.492 48.5292H320.888V64.8189H317.055C316.096 62.072 314.914 59.6124 313.509 57.4401C310.315 52.4579 306.514 49.9664 302.106 49.9664C300.381 49.9664 298.912 50.6048 297.698 51.8825C296.484 53.1602 295.878 54.7571 295.878 56.674C295.878 59.1017 296.899 61.1454 298.944 62.8061C300.988 64.4039 304.086 66.2561 308.239 68.3646C311.625 70.0892 314.308 71.6222 316.288 72.9637C318.332 74.2414 320.057 75.8383 321.462 77.7552C322.931 79.6713 323.666 81.9075 323.666 84.4628C323.666 93.7257 316.32 98.3568 301.627 98.3568Z" fill="black"/>
<path d="M348.584 98.3568C344.623 98.3568 341.078 97.4949 337.948 95.7695C336.414 94.9396 335.169 94.0449 334.21 93.0865C333.188 94.4918 332.07 95.578 330.856 96.3449C330.282 96.728 329.642 97.0791 328.94 97.3992H326.544V81.1086H330.377C331.208 83.7916 332.421 86.2831 334.019 88.5831C337.404 93.5023 341.62 95.961 346.667 95.961C349.35 95.961 351.363 95.3226 352.704 94.0449C354.11 92.7034 354.812 90.7873 354.812 88.2958C354.812 86.1874 353.854 84.4309 351.937 83.0255C350.085 81.5563 347.147 79.7671 343.122 77.6595C339.672 75.934 336.862 74.401 334.689 73.0595C332.582 71.6541 330.761 69.9296 329.227 67.8849C327.758 65.7774 327.023 63.3178 327.023 60.507C327.023 56.674 328.653 53.5751 331.91 51.2122C335.233 48.7845 340.311 47.5707 347.147 47.5707C350.532 47.5707 353.662 48.4653 356.537 50.2537C357.943 51.0845 359.157 51.9463 360.178 52.841C361.009 51.691 362.127 50.6048 363.532 49.5825C364.618 48.9441 365.257 48.593 365.448 48.5292H367.844V64.8189H364.011C363.054 62.072 361.872 59.6124 360.466 57.4401C357.272 52.4579 353.471 49.9664 349.063 49.9664C347.338 49.9664 345.869 50.6048 344.655 51.8825C343.442 53.1602 342.834 54.7571 342.834 56.674C342.834 59.1017 343.856 61.1454 345.901 62.8061C347.945 64.4039 351.044 66.2561 355.196 68.3646C358.581 70.0892 361.264 71.6222 363.245 72.9637C365.289 74.2414 367.014 75.8383 368.42 77.7552C369.889 79.6713 370.623 81.9075 370.623 84.4628C370.623 93.7257 363.277 98.3568 348.584 98.3568Z" fill="black"/>
<path d="M398.416 98.3568C390.494 98.3568 384.266 96.1215 379.73 91.6492C375.259 87.1139 373.022 80.8851 373.022 72.9637C373.022 65.0423 375.259 58.8454 379.73 54.374C384.266 49.8388 390.494 47.5707 398.416 47.5707C406.337 47.5707 412.534 49.8388 417.005 54.374C421.541 58.8454 423.809 65.0423 423.809 72.9637C423.809 80.8851 421.541 87.1139 417.005 91.6492C412.534 96.1215 406.337 98.3568 398.416 98.3568ZM398.416 96.4407C400.971 96.4407 403.111 94.6514 404.836 91.0746C406.625 87.497 407.519 81.4597 407.519 72.9637C407.519 64.4678 406.625 58.4305 404.836 54.8528C403.111 51.276 400.971 49.4868 398.416 49.4868C395.861 49.4868 393.689 51.276 391.9 54.8528C390.175 58.4305 389.313 64.4678 389.313 72.9637C389.313 81.4597 390.175 87.497 391.9 91.0746C393.689 94.6514 395.861 96.4407 398.416 96.4407Z" fill="black"/>
<path d="M426.718 95.4822L432.467 94.0449V51.8825L426.718 50.4452V49.008H435.341C439.11 49.008 442.081 50.2218 444.253 52.6495C445.084 53.6071 445.786 54.789 446.362 56.1943C447.319 54.4059 448.341 52.9687 449.428 51.8825C452.302 49.008 455.593 47.5707 459.297 47.5707C463.002 47.5707 466.261 48.4015 469.071 50.0622C471.882 51.6591 474.054 53.8633 475.588 56.674C476.545 54.8209 477.567 53.3198 478.654 52.1698C481.592 49.1037 484.882 47.5707 488.523 47.5707C491.909 47.5707 494.943 48.2729 497.626 49.6783C500.373 51.0845 502.482 53.0006 503.951 55.4283C505.484 57.8559 506.251 60.507 506.251 63.3816V94.0449L512 95.4822V96.9195H499.543C493.793 96.9195 490.919 94.0449 490.919 88.2958V63.3816C490.919 59.2294 490.28 56.1305 489.003 54.0867C487.725 51.9783 486.288 50.924 484.691 50.924C482.838 50.924 480.954 52.2017 479.037 54.7571C478.271 55.9709 477.599 57.2486 477.025 58.5901V94.0449L482.774 95.4822V96.9195H455.944V95.4822L461.693 94.0449V63.3816C461.693 59.2294 461.054 56.1305 459.777 54.0867C458.499 51.9783 457.062 50.924 455.464 50.924C453.612 50.924 451.728 52.2017 449.811 54.7571C449.044 55.9709 448.373 57.2486 447.799 58.5901V94.0449L453.548 95.4822V96.9195H426.718V95.4822Z" fill="black"/>
<path fill-rule="evenodd" clip-rule="evenodd" d="M60.2629 115.217C59.6449 115.338 59.0039 115.379 58.354 115.329C38.282 113.806 19.2834 102.719 8.45878 83.9708C-2.366 65.2215 -2.46824 43.2243 6.2494 25.0795C7.51502 22.4452 10.2586 20.8612 13.1728 21.0823C20.6527 21.6499 27.9836 23.5456 34.7981 26.6711C39.9399 16.6452 47.5474 8.09225 56.82 1.81266C59.2397 0.173937 62.4051 0.173937 64.8248 1.81266C73.9716 8.00695 81.4975 16.4133 86.6357 26.2635C93.1917 23.3805 100.204 21.6248 107.353 21.0823C110.268 20.8612 113.011 22.4452 114.276 25.0795C122.994 43.2243 122.892 65.2215 112.068 83.9708C101.243 102.719 82.2441 113.806 62.1719 115.329C61.522 115.379 60.8809 115.338 60.2629 115.217ZM74.9691 103.851C87.001 99.7587 97.6427 91.4551 104.49 79.596C113.603 63.8099 113.901 45.3506 106.875 29.9057C101.106 30.4653 95.4589 31.9408 90.162 34.2704C92.7457 41.3787 94.1555 49.0506 94.1555 57.0527C94.1555 75.2886 86.8335 91.8142 74.9691 103.851ZM78.889 30.3322C74.5967 22.0915 68.3776 15.0101 60.8224 9.68221C53.1049 15.1242 46.7822 22.3956 42.4822 30.8632C49.326 35.2396 55.4058 40.9967 60.2629 48.0114C65.3196 40.7093 71.7008 34.77 78.889 30.3322ZM65.2203 56.4977C69.6172 48.9983 75.5383 42.9384 82.3674 38.4869C84.3384 44.3157 85.4059 50.5597 85.4059 57.0527C85.4059 72.0426 79.7154 85.7051 70.3602 95.9966C72.8916 82.9964 71.3604 69.1503 65.2203 56.4977ZM55.3056 56.4977C51.1073 49.3352 45.5169 43.4864 39.0743 39.0971C37.2332 44.7503 36.2385 50.7858 36.2385 57.0527C36.2385 71.2738 41.3602 84.3006 49.8739 94.3864C47.769 81.8579 49.4182 68.6298 55.3056 56.4977ZM60.2629 100.273C63.548 89.8272 63.6828 78.4327 60.2629 67.6306C56.8431 78.4327 56.9787 89.8272 60.2629 100.273ZM16.0364 79.596C23.1944 91.9933 34.5 100.506 47.2051 104.383C35.029 92.3036 27.4887 75.5582 27.4887 57.0527C27.4887 49.2138 28.8417 41.6908 31.3267 34.7046C25.7528 32.1236 19.771 30.4993 13.6512 29.9057C6.6257 45.3506 6.92247 63.8099 16.0364 79.596Z" fill="black"/>
</svg>
