<svg width="512" height="512" viewBox="0 0 512 512" fill="none" xmlns="http://www.w3.org/2000/svg">
<path d="M110.983 61.3578C169.682 105.445 232.82 194.835 256.001 242.807C279.184 194.838 342.319 105.444 401.02 61.3578C443.375 29.5464 512 4.93258 512 83.2552C512 98.8973 503.036 214.657 497.778 233.45C479.502 298.788 412.907 315.453 353.668 305.366C457.215 322.997 483.557 381.397 426.67 439.797C318.629 550.71 271.384 411.969 259.273 376.418C257.054 369.901 256.015 366.852 256 369.444C255.985 366.852 254.946 369.901 252.727 376.418C240.621 411.969 193.377 550.714 85.3305 439.797C28.4423 381.397 54.7828 322.994 158.332 305.366C99.0917 315.453 32.495 298.788 14.222 233.45C8.96418 214.655 0 98.8955 0 83.2552C0 4.93258 68.627 29.5464 110.98 61.3578H110.983Z" fill="black"/>
</svg>
