<svg width="512" height="512" viewBox="0 0 512 512" fill="none" xmlns="http://www.w3.org/2000/svg">
<path d="M436.321 436.311H360.45V317.509C360.45 289.15 359.939 252.679 320.982 252.679C282.025 252.679 275.383 283.529 275.383 315.465V436.311H199.512V192H272.381V225.405H273.403C283.557 206.18 308.337 185.932 345.25 185.932C422.143 185.932 436.385 236.519 436.385 302.307V436.311H436.321ZM113.934 158.531C89.6018 158.531 69.9315 138.794 69.9315 114.459C69.9315 90.1237 89.6018 70.4511 113.934 70.4511C138.266 70.4511 157.936 90.1876 157.936 114.459C157.936 138.731 138.202 158.531 113.934 158.531ZM151.869 436.311H75.9347V191.936H151.869V436.311ZM474.129 0H37.8077C16.9241 0 0 16.5429 0 36.9182V475.082C0 495.457 16.9241 512 37.8077 512H474.129C495.012 512 512 495.457 512 475.082V36.9182C512 16.5429 495.012 0 474.129 0Z" fill="black"/>
</svg>
