<svg width="512" height="119" viewBox="0 0 512 119" fill="none" xmlns="http://www.w3.org/2000/svg">
<path d="M151.635 31.4805C156.514 31.4805 160.736 32.2934 164.302 33.9193C167.921 35.5452 170.701 37.8529 172.641 40.8425C174.582 43.8319 175.553 47.3722 175.553 51.4632C175.553 55.5016 174.582 59.042 172.641 62.0839C170.701 65.0735 167.921 67.3813 164.302 69.0065C160.736 70.5805 156.514 71.3675 151.635 71.3675H140.543V86.5516H127.798V31.4805H151.635ZM150.928 60.9825C154.756 60.9825 157.668 60.1695 159.66 58.5437C161.654 56.8654 162.65 54.5051 162.65 51.4632C162.65 48.3688 161.654 46.0086 159.66 44.3827C157.668 42.7043 154.756 41.8652 150.928 41.8652H140.543V60.9825H150.928Z" fill="black"/>
<path d="M191.575 49.811C193.043 47.7655 195.01 46.2184 197.475 45.1694C199.992 44.1204 202.877 43.5959 206.128 43.5959V54.9247C204.765 54.8198 203.847 54.7674 203.375 54.7674C199.861 54.7674 197.108 55.7639 195.115 57.7569C193.122 59.6975 192.125 62.6345 192.125 66.568V86.5515H179.853V44.2253H191.575V49.811Z" fill="black"/>
<path d="M229.248 87.1798C224.791 87.1798 220.778 86.263 217.212 84.4266C213.698 82.5391 210.945 79.942 208.951 76.6378C206.959 73.3337 205.962 69.5836 205.962 65.3882C205.962 61.1922 206.959 57.4422 208.951 54.138C210.945 50.8338 213.698 48.2638 217.212 46.4281C220.778 44.54 224.791 43.5959 229.248 43.5959C233.706 43.5959 237.693 44.54 241.207 46.4281C244.721 48.2638 247.474 50.8338 249.468 54.138C251.46 57.4422 252.457 61.1922 252.457 65.3882C252.457 69.5836 251.46 73.3337 249.468 76.6378C247.474 79.942 244.721 82.5391 241.207 84.4266C237.693 86.263 233.706 87.1798 229.248 87.1798ZM229.248 77.11C232.396 77.11 234.966 76.0607 236.958 73.9633C239.004 71.8134 240.026 68.954 240.026 65.3882C240.026 61.8217 239.004 58.9895 236.958 56.8916C234.966 54.7412 232.396 53.666 229.248 53.666C226.101 53.666 223.505 54.7412 221.461 56.8916C219.414 58.9895 218.391 61.8217 218.391 65.3882C218.391 68.954 219.414 71.8134 221.461 73.9633C223.505 76.0607 226.101 77.11 229.248 77.11Z" fill="black"/>
<path d="M308.1 31.4805V86.5516H297.636L270.179 53.1153V86.5516H257.592V31.4805H268.134L295.512 64.9161V31.4805H308.1Z" fill="black"/>
<path d="M333.402 43.5959C339.958 43.5959 344.992 45.1694 348.506 48.3163C352.02 51.4107 353.778 56.1048 353.778 62.3986V86.5515H342.292V81.2799C339.984 85.2136 335.683 87.1798 329.39 87.1798C326.138 87.1798 323.305 86.6289 320.893 85.5284C318.533 84.4266 316.723 82.9064 315.465 80.9651C314.206 79.0251 313.576 76.8215 313.576 74.3568C313.576 70.4231 315.045 67.3288 317.982 65.0735C320.971 62.8182 325.561 61.6905 331.75 61.6905H341.505C341.505 59.0157 340.693 56.9702 339.066 55.5541C337.44 54.0855 335.001 53.3513 331.75 53.3513C329.495 53.3513 327.265 53.7185 325.063 54.4526C322.913 55.1346 321.076 56.0786 319.555 57.2848L315.15 48.7097C317.457 47.0837 320.211 45.825 323.41 44.9333C326.662 44.0418 329.993 43.5959 333.402 43.5959ZM332.458 78.9201C334.555 78.9201 336.418 78.4479 338.043 77.5035C339.67 76.5066 340.822 75.0651 341.505 73.1763V68.849H333.087C328.052 68.849 325.535 70.5017 325.535 73.8059C325.535 75.3799 326.138 76.6378 327.344 77.5822C328.603 78.4742 330.307 78.9201 332.458 78.9201Z" fill="black"/>
<path d="M388.25 84.5053C387.045 85.3973 385.55 86.0793 383.767 86.5515C382.036 86.97 380.201 87.1798 378.259 87.1798C373.225 87.1798 369.318 85.8957 366.538 83.3248C363.81 80.7552 362.447 76.9789 362.447 71.9971V54.61H355.917V45.1694H362.447V34.8634H374.719V45.1694H385.261V54.61H374.719V71.8397C374.719 73.6223 375.165 75.0126 376.057 76.0082C377.001 76.9526 378.312 77.4248 379.991 77.4248C381.931 77.4248 383.583 76.9002 384.946 75.8521L388.25 84.5053Z" fill="black"/>
<path d="M433.847 44.2253V86.5516H422.203V81.516C420.578 83.3511 418.637 84.7677 416.382 85.7646C414.126 86.7077 411.688 87.1799 409.065 87.1799C403.505 87.1799 399.101 85.5809 395.848 82.3817C392.596 79.1825 390.971 74.4355 390.971 68.1421V44.2253H403.243V66.332C403.243 73.1501 406.102 76.5592 411.819 76.5592C414.756 76.5592 417.117 75.6161 418.899 73.7272C420.682 71.7873 421.574 68.9278 421.574 65.1521V44.2253H433.847Z" fill="black"/>
<path d="M453.006 49.811C454.473 47.7655 456.441 46.2184 458.906 45.1694C461.423 44.1204 464.308 43.5959 467.56 43.5959V54.9247C466.196 54.8198 465.278 54.7674 464.807 54.7674C461.292 54.7674 458.538 55.7639 456.546 57.7569C454.552 59.6975 453.557 62.6345 453.557 66.568V86.5515H441.283V44.2253H453.006V49.811Z" fill="black"/>
<path d="M512 65.5454C512 65.7023 511.921 66.8041 511.764 68.849H479.744C480.321 71.4724 481.684 73.5435 483.836 75.0651C485.985 76.5853 488.66 77.3461 491.859 77.3461C494.063 77.3461 496.003 77.0313 497.682 76.4017C499.412 75.7209 501.012 74.6716 502.48 73.255L509.011 80.3355C505.024 84.8988 499.202 87.1798 491.544 87.1798C486.772 87.1798 482.55 86.263 478.879 84.4266C475.207 82.5391 472.375 79.942 470.382 76.6378C468.389 73.3337 467.392 69.5836 467.392 65.3882C467.392 61.2447 468.363 57.5209 470.303 54.2167C472.297 50.8601 474.997 48.2638 478.406 46.4281C481.868 44.54 485.723 43.5959 489.972 43.5959C494.115 43.5959 497.865 44.4875 501.222 46.2707C504.578 48.054 507.201 50.624 509.089 53.9807C511.029 57.2848 512 61.1399 512 65.5454ZM490.05 52.8793C487.271 52.8793 484.936 53.666 483.048 55.2394C481.16 56.8129 480.007 58.9633 479.587 61.6905H500.435C500.015 59.0157 498.861 56.8916 496.973 55.3181C495.085 53.6922 492.777 52.8793 490.05 52.8793Z" fill="black"/>
<path fill-rule="evenodd" clip-rule="evenodd" d="M57.9051 0.81131C56.0352 -0.270437 53.7296 -0.270437 51.8597 0.81131C38.5777 8.49451 29.6196 22.8699 29.6196 39.3448C29.6196 41.6929 29.8016 43.9983 30.1521 46.2478C21.0089 43.1427 11.1089 44.2727 3.02278 48.9322C1.15101 50.0107 -0.00183417 52.0073 2.19058e-06 54.1675C0.00957749 65.5643 5.93 76.672 16.5331 82.7936C21.7349 85.7974 27.4125 87.2245 33.0129 87.2271C32.1608 89.6406 31.6973 92.239 31.6973 94.945C31.6973 107.75 42.0773 118.129 54.8816 118.129C67.6864 118.129 78.0657 107.75 78.0657 94.945C78.0657 92.2325 77.6001 89.6301 76.7449 87.2113C82.0113 87.0448 87.3157 85.615 92.2004 82.7936C102.804 76.672 108.724 65.5647 108.733 54.168C108.736 52.0078 107.583 50.0112 105.711 48.9326C97.943 44.4567 88.5015 43.2376 79.666 45.901C79.9821 43.7615 80.1447 41.5723 80.1447 39.3448C80.1447 22.8699 71.1872 8.49451 57.9051 0.81131ZM41.6928 39.3448C41.6928 28.6464 46.8729 19.1523 54.8824 13.2427C62.8919 19.1523 68.072 28.6464 68.072 39.3448C68.072 50.043 62.8919 59.5372 54.8824 65.4468C46.8729 59.5372 41.6928 50.043 41.6928 39.3448ZM78.6901 59.3935C84.2647 56.1749 90.7064 55.8004 96.3336 57.8371C95.2842 63.7285 91.7387 69.1193 86.1641 72.3382C80.5894 75.557 74.1477 75.9309 68.5206 73.8951C69.5699 68.003 73.1154 62.6121 78.6901 59.3935ZM12.4003 57.8366C18.0271 55.7999 24.4686 56.1744 30.0434 59.393C35.6183 62.6116 39.1632 68.003 40.213 73.8938C34.586 75.9309 28.1446 75.557 22.5698 72.3382C16.995 69.1193 13.4499 63.728 12.4003 57.8366ZM43.7705 94.945C43.7705 88.809 48.7451 83.8338 54.8816 83.8338C61.018 83.8338 65.993 88.809 65.993 94.945C65.993 101.081 61.018 106.056 54.8816 106.056C48.7451 106.056 43.7705 101.081 43.7705 94.945Z" fill="black"/>
</svg>
