<svg width="512" height="512" viewBox="0 0 512 512" fill="none" xmlns="http://www.w3.org/2000/svg">
<path d="M360.096 256.114C360.096 198.615 313.488 152.008 256.003 152.008C198.512 152.008 151.911 198.615 151.911 256.114C151.911 313.607 198.512 360.22 256.003 360.22C313.488 360.22 360.096 313.607 360.096 256.114Z" fill="black"/>
<path fill-rule="evenodd" clip-rule="evenodd" d="M245.595 0.0754222C239.281 0.0725874 233.429 0.0699579 227.989 0.078475L227.989 0C169.788 0.0654428 158.624 0.455611 129.817 1.75698C99.3698 3.1562 82.8385 8.23107 71.8306 12.5256C57.2576 18.1994 46.8481 24.9661 35.9186 35.8975C24.9889 46.8285 18.2096 57.2391 12.5497 71.814C8.27535 82.8232 3.18806 99.3498 1.79577 129.801C0.29935 162.724 0 172.563 0 255.964C0 339.366 0.29935 349.256 1.79577 382.18C3.18139 412.631 8.27535 429.158 12.5497 440.154C18.223 454.735 24.9889 465.12 35.9186 476.051C46.8481 486.982 57.2576 493.749 71.8306 499.41C82.8452 503.685 99.3698 508.773 129.817 510.178C162.736 511.675 172.618 512 256.003 512C339.382 512 349.271 511.675 382.19 510.178C412.637 508.786 429.175 503.711 440.169 499.416C454.749 493.755 465.126 486.989 476.055 476.057C486.985 465.133 493.764 454.755 499.424 440.18C503.699 429.184 508.786 412.657 510.178 382.206C511.675 349.283 512 339.392 512 256.043C512 172.693 511.675 162.802 510.178 129.879C508.793 99.428 503.699 82.901 499.424 71.9049C493.751 57.3303 486.985 46.9197 476.055 35.9883C465.132 25.0573 454.742 18.2903 440.169 12.6295C429.162 8.35467 412.637 3.26675 382.19 1.87421C349.264 0.377765 339.382 0.078475 256.003 0.078475C252.399 0.078475 248.933 0.0769229 245.595 0.0754222ZM385.221 89.4011C385.221 68.7039 402.007 51.9361 422.695 51.9361L422.695 51.9234C443.383 51.9234 460.168 68.7102 460.168 89.4011C460.168 110.092 443.383 126.88 422.695 126.88C402.007 126.88 385.221 110.092 385.221 89.4011ZM95.6354 256.114C95.6354 167.539 167.44 95.7256 256.003 95.7256H255.997C344.56 95.7256 416.345 167.539 416.345 256.114C416.345 344.689 344.567 416.47 256.003 416.47C167.44 416.47 95.6354 344.689 95.6354 256.114Z" fill="black"/>
</svg>
