<svg width="512" height="107" viewBox="0 0 512 107" fill="none" xmlns="http://www.w3.org/2000/svg">
<path d="M19.9701 0.129089H1.76906C0.792009 0.129089 0 0.921098 0 1.89815V36.1949L19.9701 0.129089Z" fill="black"/>
<path d="M0 47.2263C0.0574945 47.2288 0.11552 47.2302 0.174076 47.2302H27.9232C30.0953 47.2302 31.8019 49.0857 31.6167 51.2461L29.2155 79.2498C28.8743 83.2292 34.2177 84.851 36.1532 81.3555L64.9873 29.2809C66.3529 26.8147 64.566 23.7905 61.7431 23.7905H33.9939C31.8219 23.7905 30.1153 21.9349 30.3005 19.7747L31.985 0.129089H59.9873C85.7912 0.129089 97.3585 32.5852 77.4014 48.9927L61.8004 61.8191C60.7786 62.6592 60.5774 64.1484 61.3394 65.2311L88.2602 103.485C89.0864 104.658 88.2479 106.273 86.814 106.273H1.76906C0.792009 106.273 0 105.48 0 104.504V47.2263Z" fill="black"/>
<path d="M303.139 57.5891V84.41H317.953V54.2971C317.953 50.7469 317.18 47.6484 315.631 45.0017C314.146 42.2903 312.016 40.1922 309.241 38.7081C306.463 37.1584 303.237 36.3837 299.557 36.3837C295.943 36.3837 292.746 37.1584 289.972 38.7081C289.234 39.1021 288.541 39.5426 287.89 40.028C287.538 40.2898 287.2 40.5653 286.873 40.8538V16.0507H272.059V84.41H286.873V57.5891C286.873 55.9755 287.228 54.5553 287.939 53.3289C288.649 52.0374 289.617 51.0691 290.842 50.4239C292.07 49.7138 293.489 49.3587 295.102 49.3587C297.427 49.3587 299.332 50.1336 300.816 51.6824C302.366 53.1673 303.139 55.1359 303.139 57.5891Z" fill="black"/>
<path fill-rule="evenodd" clip-rule="evenodd" d="M138.542 56.2338V84.41H123.343V16.0507H151.226C155.746 16.0507 159.716 16.9223 163.138 18.6644C166.557 20.3429 169.237 22.6993 171.174 25.7329C173.11 28.7667 174.077 32.253 174.077 36.1902C174.077 40.1922 173.11 43.7105 171.174 46.744C169.237 49.7138 166.527 52.0374 163.04 53.7157C161.096 54.6521 158.961 55.3275 156.634 55.7413L178.534 84.41H160.523L140.134 56.2338H138.542ZM138.542 45.0017H149.388C152.422 45.0017 154.747 44.2269 156.36 42.6773C158.037 41.1285 158.878 39.0302 158.878 36.3837C158.878 33.9313 158.071 31.8979 156.456 30.2843C154.842 28.6699 152.52 27.863 149.486 27.863H138.542V45.0017Z" fill="black"/>
<path fill-rule="evenodd" clip-rule="evenodd" d="M188.31 82.3767C192.313 84.4421 196.863 85.4752 201.961 85.4752C205.901 85.4752 209.515 84.7971 212.808 83.4417C216.098 82.0855 218.907 80.0522 221.232 77.3416L213.098 69.208C211.677 70.8215 210.032 72.0482 208.158 72.8878C206.287 73.6618 204.19 74.0497 201.864 74.0497C199.348 74.0497 197.153 73.5332 195.281 72.5C193.473 71.403 192.055 69.8861 191.022 67.9495C190.696 67.2774 190.427 66.5622 190.211 65.8029L223.942 65.7226C224.2 64.4961 224.361 63.4309 224.425 62.5275C224.471 62.1898 224.506 61.8605 224.536 61.5384C224.552 61.3786 224.563 61.2214 224.574 61.0659C224.589 60.8318 224.602 60.602 224.609 60.3766L224.616 60.1277L224.62 59.816C224.62 55.2326 223.588 51.1658 221.522 47.6157C219.521 44.0654 216.745 41.2901 213.195 39.2885C209.644 37.2881 205.544 36.287 200.898 36.287C196.12 36.287 191.828 37.352 188.019 39.4821C184.211 41.6122 181.177 44.5501 178.918 48.2938C176.722 51.9727 175.625 56.1689 175.625 60.881C175.625 65.5931 176.756 69.8213 179.013 73.565C181.274 77.3087 184.373 80.2466 188.31 82.3767ZM190.215 55.6334C190.287 55.3812 190.365 55.1342 190.448 54.8924C190.59 54.4846 190.747 54.0915 190.924 53.7158C191.894 51.7792 193.217 50.2942 194.894 49.262C196.637 48.1641 198.671 47.6157 200.994 47.6157C203.187 47.6157 205.027 48.1002 206.513 49.0686L206.713 49.1877L206.911 49.3147C207.079 49.4262 207.24 49.5436 207.398 49.6664C207.552 49.7863 207.702 49.9125 207.847 50.0437C208.748 50.8593 209.464 51.8897 209.998 53.1353C210.324 53.8644 210.586 54.6773 210.785 55.5747L190.215 55.6334Z" fill="black"/>
<path d="M250.653 85.4752C245.809 85.4752 241.42 84.4101 237.482 82.2799C233.546 80.1498 230.449 77.2121 228.188 73.4682C225.929 69.7245 224.798 65.5283 224.798 60.881C224.798 56.1689 225.929 51.9727 228.188 48.2938C230.512 44.5501 233.642 41.6122 237.58 39.4821C241.518 37.352 245.938 36.287 250.846 36.287C254.524 36.287 257.88 36.933 260.915 38.2236C262.462 38.836 263.921 39.6091 265.29 40.5428C266.663 41.4801 267.949 42.5788 269.145 43.84L259.656 53.3289C258.559 52.1022 257.268 51.1987 255.783 50.6174C255.113 50.3436 254.395 50.1345 253.623 49.9894C253.271 49.9229 252.91 49.8702 252.539 49.8313C252.155 49.7908 251.76 49.7648 251.354 49.7536C251.186 49.7483 251.017 49.7458 250.846 49.7458C250.322 49.7458 249.813 49.7752 249.317 49.833L249.05 49.8675L248.884 49.8918C248.712 49.9185 248.541 49.9496 248.371 49.9834C247.21 50.2166 246.131 50.6217 245.132 51.1988C243.518 52.1022 242.229 53.3927 241.259 55.0711C240.355 56.6855 239.902 58.5894 239.902 60.7842C239.902 62.9791 240.355 64.9159 241.259 66.5933C242.229 68.2716 243.552 69.595 245.229 70.5634C246.906 71.5316 248.78 72.0162 250.846 72.0162C252.783 72.0162 254.492 71.6932 255.976 71.048C257.526 70.3379 258.849 69.3695 259.946 68.143L269.34 77.6319C266.886 80.2137 264.11 82.1823 261.013 83.5384C257.913 84.829 254.46 85.4752 250.653 85.4752Z" fill="black"/>
<path fill-rule="evenodd" clip-rule="evenodd" d="M343.251 85.3784C338.927 85.3784 335.053 84.3133 331.633 82.1823C328.276 80.0521 325.597 77.148 323.597 73.4682C321.66 69.7894 320.69 65.5931 320.69 60.881C320.69 56.1689 321.66 51.9727 323.597 48.2938C325.597 44.6139 328.276 41.7098 331.633 39.5788C335.053 37.4487 338.927 36.3837 343.251 36.3837C346.414 36.3837 349.255 36.9969 351.772 38.2236C353.465 39.0278 354.95 40.04 356.225 41.2598V37.3519H370.749V84.41H356.225V80.5972C355.353 81.4221 354.373 82.1529 353.287 82.7896C353.089 82.9062 352.885 83.0203 352.678 83.1308C352.415 83.2715 352.144 83.4072 351.868 83.5384C349.287 84.7651 346.414 85.3784 343.251 85.3784ZM346.255 72.0162C349.418 72.0162 351.965 70.9832 353.902 68.9178C355.84 66.7877 356.807 64.1081 356.807 60.881C356.807 59.7831 356.694 58.75 356.468 57.7818C356.241 56.8134 355.903 55.9097 355.452 55.071C354.612 53.3927 353.386 52.1022 351.772 51.1987C350.9 50.6537 349.947 50.2624 348.912 50.0239C348.107 49.8382 347.254 49.7458 346.35 49.7458C345.319 49.7458 344.342 49.8666 343.424 50.1086C342.864 50.2562 342.322 50.4488 341.804 50.6864C341.471 50.8386 341.148 51.0094 340.831 51.1987C339.281 52.1022 338.023 53.3927 337.054 55.071C336.152 56.7495 335.701 58.6861 335.701 60.881C335.701 63.0111 336.152 64.9159 337.054 66.5933C337.958 68.2716 339.217 69.595 340.831 70.5634C342.444 71.5316 344.252 72.0162 346.255 72.0162Z" fill="black"/>
<path d="M392.121 37.3519H377.307V84.41H392.121V58.5573C392.121 55.5229 392.832 53.2639 394.251 51.7792C395.737 50.2303 397.706 49.4555 400.158 49.4555C401.386 49.4555 402.483 49.649 403.452 50.0368C404.418 50.4239 405.226 50.9723 405.872 51.6824L414.682 40.5472C413.392 39.127 411.875 38.0948 410.132 37.4487C408.455 36.7386 406.484 36.3837 404.225 36.3837C399.061 36.3837 395.028 37.9014 392.121 40.935V37.3519Z" fill="black"/>
<path fill-rule="evenodd" clip-rule="evenodd" d="M433.379 105.517C428.215 105.517 423.664 104.613 419.727 102.807C415.853 101.065 412.787 98.5791 410.528 95.3506L419.628 86.2491C421.307 88.2505 423.181 89.7675 425.245 90.8006C427.375 91.832 429.924 92.3485 432.895 92.3485C436.574 92.3485 439.445 91.4463 441.512 89.6383C443.642 87.8307 444.708 85.2808 444.708 81.9887V79.0165C443.7 79.8232 442.57 80.5229 441.319 81.1173C438.736 82.3438 435.865 82.9571 432.702 82.9571C428.375 82.9571 424.536 81.9249 421.178 79.8586C417.822 77.7934 415.176 74.9852 413.239 71.4349C411.301 67.8847 410.334 63.9475 410.334 59.6225C410.334 55.2325 411.301 51.2955 413.239 47.809C415.176 44.2589 417.822 41.4836 421.178 39.4821C424.536 37.4167 428.375 36.3837 432.702 36.3837C435.928 36.3837 438.801 36.9969 441.319 38.2236C441.551 38.3272 441.777 38.4351 442 38.5475C443.099 39.1021 444.098 39.7577 444.999 40.5143V37.3519H459.522V81.6018C459.522 86.4434 458.392 90.6396 456.133 94.1883C453.874 97.7388 450.776 100.515 446.838 102.515C442.899 104.518 438.414 105.517 433.379 105.517ZM435.509 69.7894C437.575 69.7894 439.35 69.3367 440.834 68.4333C441.214 68.2113 441.572 67.971 441.906 67.7136C442.93 66.925 443.735 65.9706 444.319 64.8509C444.57 64.3897 444.783 63.9121 444.956 63.4171C445.184 62.7753 445.351 62.1041 445.453 61.4045C445.538 60.83 445.579 60.2358 445.579 59.6225C445.579 57.6859 445.159 55.9427 444.319 54.3938C443.546 52.8441 442.382 51.6177 440.834 50.714C439.35 49.8106 437.575 49.3587 435.509 49.3587C434.899 49.3587 434.312 49.4012 433.744 49.4849L433.447 49.5333L433.185 49.5816C432.622 49.6949 432.081 49.8511 431.562 50.0506C431.272 50.1621 430.989 50.2873 430.715 50.4257C430.535 50.5162 430.359 50.6121 430.184 50.714C428.635 51.6177 427.441 52.8441 426.602 54.3938C426.163 55.2007 425.84 56.0601 425.631 56.9722C425.438 57.8111 425.342 58.6948 425.342 59.6225C425.342 61.4296 425.762 63.1399 426.602 64.7543C427.441 66.303 428.601 67.5296 430.087 68.4333C430.919 68.9187 431.826 69.2745 432.808 69.4991C433.653 69.6927 434.554 69.7894 435.509 69.7894Z" fill="black"/>
<path fill-rule="evenodd" clip-rule="evenodd" d="M475.692 82.3767C479.692 84.4421 484.243 85.4752 489.342 85.4752C493.28 85.4752 496.896 84.7971 500.186 83.4417C503.48 82.0855 506.286 80.0522 508.61 77.3416L500.476 69.208C499.058 70.8215 497.412 72.0482 495.539 72.8878C493.669 73.6618 491.569 74.0497 489.246 74.0497C486.729 74.0497 484.534 73.5332 482.662 72.5C481.37 71.7174 480.279 70.7205 479.384 69.5096C479.241 69.317 479.104 69.1183 478.972 68.9143C478.77 68.606 478.579 68.2838 478.402 67.9495C478.076 67.2774 477.806 66.5622 477.59 65.8029L511.322 65.7226C511.45 65.117 511.554 64.5504 511.634 64.0236C511.717 63.4828 511.774 62.9844 511.807 62.5275C511.851 62.1862 511.889 61.8528 511.919 61.528C511.972 60.9302 512 60.3593 512 59.816C512 55.2326 510.967 51.1658 508.902 47.6157C506.9 44.0654 504.126 41.2901 500.575 39.2885C497.023 37.2881 492.926 36.287 488.279 36.287C483.502 36.287 479.209 37.352 475.398 39.4821C471.591 41.6122 468.557 44.5501 466.298 48.2938C464.104 51.9727 463.006 56.1689 463.006 60.881C463.006 65.5931 464.135 69.8213 466.395 73.565C468.654 77.3087 471.752 80.2466 475.692 82.3767ZM477.597 55.6334C477.79 54.9545 478.025 54.3144 478.305 53.7158C478.858 52.6101 479.525 51.6522 480.309 50.8419C480.583 50.5578 480.873 50.2918 481.178 50.0437C481.524 49.7596 481.889 49.4987 482.274 49.262C484.019 48.1641 486.051 47.6157 488.374 47.6157C490.57 47.6157 492.409 48.1002 493.894 49.0686C494.486 49.4141 495.021 49.8253 495.5 50.3029C496.273 51.0744 496.901 52.0184 497.379 53.1353C497.702 53.8644 497.964 54.6773 498.166 55.5747L477.597 55.6334Z" fill="black"/>
</svg>
