<!DOCTYPE svg PUBLIC "-//W3C//DTD SVG 1.1//EN" "http://www.w3.org/Graphics/SVG/1.1/DTD/svg11.dtd">
<!-- Uploaded to: SVG Repo, www.svgrepo.com, Transformed by: SVG Repo Mixer Tools -->
<svg fill="#000000" height="64px" width="64px" version="1.1" id="Layer_1" xmlns="http://www.w3.org/2000/svg" xmlns:xlink="http://www.w3.org/1999/xlink" viewBox="0 0 512.002 512.002" xml:space="preserve">
<g id="SVGRepo_bgCarrier" stroke-width="0"/>
<g id="SVGRepo_tracerCarrier" stroke-linecap="round" stroke-linejoin="round"/>
<g id="SVGRepo_iconCarrier"> <g> <g> <g> <path d="M496.736,466.443v-30.615c0-9.663-5.872-17.802-13.834-20.249c-21.148-45.525-31.781-93.288-36.996-125.725 c-0.708-4.409-4.851-7.405-9.266-6.699c-4.409,0.709-7.407,4.858-6.699,9.266c7.259,45.143,18.972,86.245,34.863,122.389H274.861 c-0.081-0.176-0.16-0.351-0.24-0.527c-0.663-1.44-1.318-2.893-1.968-4.356c-0.223-0.502-0.443-1.006-0.664-1.508 c-0.515-1.174-1.026-2.355-1.534-3.541c-0.258-0.603-0.516-1.205-0.77-1.808c-0.458-1.086-0.91-2.183-1.36-3.279 c-0.667-1.625-1.324-3.252-1.967-4.879c-0.166-0.419-0.334-0.835-0.499-1.256c-0.164-0.418-0.321-0.835-0.483-1.254 c25.709-69.115,31.078-135.829,32.188-158.429h126.011c0.337,6.657,1.055,17.201,2.562,30.602 c0.499,4.438,4.515,7.635,8.937,7.13c4.437-0.499,7.629-4.5,7.13-8.937c-2.523-22.436-2.758-36.851-2.76-36.992v-30.226v-30.338 c0-4.466-3.618-8.084-8.084-8.084H289.763c-4.466,0-8.084,3.618-8.084,8.084v30.338l0.001,30.224 c-0.011,0.745-1.285,68.462-24.951,142.163c-23.658-73.749-24.958-141.332-24.969-142.161v-30.226v-30.338 c0-4.466-3.618-8.084-8.084-8.084h-72.61v-19.745c0-6.836,5.561-12.397,12.397-12.397h16.935h76.907h0.03 c19.205,0,34.83-15.624,34.83-34.83V89.24c0-19.205-15.624-34.83-34.83-34.83c-4.466,0-8.084,3.618-8.084,8.084 s3.618,8.084,8.084,8.084c10.29,0,18.661,8.372,18.661,18.661v0.917c0,10.29-8.372,18.662-18.661,18.662h-0.03h-76.907h-16.935 c-15.75,0-28.565,12.815-28.565,28.565v19.745H82.079c-4.466,0-8.084,3.618-8.084,8.084v30.338l0.001,30.224 c-0.015,1.013-1.932,100.43-43.457,189.806c-7.961,2.447-13.836,10.586-13.836,20.249v30.246 C7.149,468.3,0.002,476.867,0.002,487.089v3.32c0,11.906,9.687,21.593,21.593,21.593h371.024c4.466,0,8.084-3.619,8.084-8.084 s-3.618-8.084-8.084-8.084H21.596c-2.991,0-5.425-2.434-5.425-5.425v-3.32c0-2.991,2.434-5.425,5.425-5.425h3.192h256.181 h207.684h1.755c2.991,0,5.425,2.434,5.425,5.425v3.32c0,2.991-2.434,5.425-5.425,5.425h-70.48c-4.466,0-8.084,3.618-8.084,8.084 s3.618,8.084,8.084,8.084h70.48c11.906,0,21.593-9.687,21.593-21.593v-3.32C512,477.382,505.563,469.156,496.736,466.443z M375.495,187.463h-77.648l0.001-14.17h125.428v14.17h-20.295c-4.466,0-8.084,3.618-8.084,8.084s3.618,8.084,8.084,8.084h20.293 v14.17H297.847l0.001-14.17h77.647c4.466,0,8.084-3.618,8.084-8.084S379.961,187.463,375.495,187.463z M90.164,203.632h77.647 c4.466,0,8.084-3.618,8.084-8.084s-3.618-8.084-8.084-8.084H90.164l0.001-14.17h125.427v14.17h-20.293 c-4.466,0-8.084,3.618-8.084,8.084s3.618,8.084,8.084,8.084h20.293v14.17H90.163L90.164,203.632z M89.883,233.971h125.991 c1.221,25.102,7.658,104.418,41.25,180.838H48.633C82.224,338.391,88.662,259.074,89.883,233.971z M272.883,465.492H32.871 v-29.665c0-3.009,1.71-4.85,2.64-4.85h0.517h233.698h0.517c0.116,0,0.245,0.029,0.38,0.085c0.951,0.393,2.258,2.133,2.258,4.765 V465.492z M480.565,465.492H289.052v-29.665c0-0.662-0.036-1.314-0.089-1.96c-0.008-0.097-0.014-0.195-0.023-0.292 c-0.058-0.613-0.143-1.218-0.249-1.815c-0.019-0.112-0.041-0.224-0.063-0.336c-0.028-0.149-0.052-0.3-0.083-0.447h188.864h0.517 c0.93,0,2.639,1.842,2.639,4.85V465.492z"/> <path d="M117.389,70.577H229.98c4.466,0,8.084-3.618,8.084-8.084s-3.618-8.084-8.084-8.084H117.389 c-10.29,0-18.66-8.372-18.66-18.661V34.83c0-10.291,8.371-18.661,18.66-18.661h67.32c4.466,0,8.084-3.618,8.084-8.084 S189.174,0,184.708,0h-67.32C98.185,0,82.561,15.625,82.561,34.83v0.917C82.561,54.952,98.185,70.577,117.389,70.577z"/> <path d="M213.681,16.168h5.88c4.466,0,8.084-3.618,8.084-8.084S224.027,0,219.561,0h-5.88c-4.466,0-8.084,3.618-8.084,8.084 S209.216,16.168,213.681,16.168z"/> </g> </g> </g> </g>
</svg>