<svg width="512" height="512" viewBox="0 0 512 512" fill="none" xmlns="http://www.w3.org/2000/svg">
<g clip-path="url(#clip0_86_8)">
<path fill-rule="evenodd" clip-rule="evenodd" d="M142.222 0C63.6871 0 0 63.6871 0 142.222V369.778C0 448.313 63.6871 512 142.222 512H369.778C448.313 512 512 448.313 512 369.778V142.222C512 63.6871 448.313 0 369.778 0H142.222ZM426.667 56.8889C442.368 56.8889 455.111 69.632 455.111 85.3333C455.111 101.035 442.368 113.778 426.667 113.778C410.965 113.778 398.222 101.035 398.222 85.3333C398.222 69.632 410.965 56.8889 426.667 56.8889ZM256 113.778C334.535 113.778 398.222 177.465 398.222 256C398.222 334.535 334.535 398.222 256 398.222C177.465 398.222 113.778 334.535 113.778 256C113.778 177.465 177.465 113.778 256 113.778ZM256 170.667C208.872 170.667 170.667 208.872 170.667 256C170.667 303.128 208.872 341.333 256 341.333C303.128 341.333 341.333 303.128 341.333 256C341.333 208.872 303.128 170.667 256 170.667Z" fill="black"/>
</g>
<defs>
<clipPath id="clip0_86_8">
<rect width="512" height="512" fill="white"/>
</clipPath>
</defs>
</svg>
