<svg width="512" height="107" viewBox="0 0 512 107" fill="none" xmlns="http://www.w3.org/2000/svg">
<path fill-rule="evenodd" clip-rule="evenodd" d="M148.737 48.9525C150.829 58.9298 149.86 68.2093 146.48 75.9476L146.66 75.9443C143.763 83.8749 134.124 100.467 111.432 105.225C110.569 105.406 109.707 105.55 108.847 105.657C106.682 105.975 104.436 106.14 102.118 106.14C75.2442 106.14 48.8212 84.0187 43.1005 56.7296C40.3756 43.7317 42.8392 31.9057 49.0712 23.0843C51.9659 17.5123 67.1523 3.99882 79.4076 1.37296C79.7394 1.30187 80.0583 1.24615 80.365 1.20524C83.6041 0.416378 87.0589 0 90.6961 0C117.083 0 143.07 21.9168 148.737 48.9525ZM139.5 46.665C143.949 67.8898 130.755 85.0944 110.03 85.0944C89.306 85.0944 68.8984 67.8898 64.449 46.665C59.9995 25.4407 73.1931 8.23492 93.9177 8.23492C114.642 8.23492 135.049 25.4407 139.5 46.665ZM108.766 73.2001C124.106 73.2001 133.935 60.7685 130.72 45.4326C127.506 30.0971 112.464 17.6651 97.124 17.6651C81.7843 17.6651 71.9553 30.0971 75.1703 45.4326C78.3852 60.7685 93.4267 73.2001 108.766 73.2001ZM122.431 44.2818C124.448 53.9021 118.115 61.7005 108.284 61.7005C98.4554 61.7005 88.8519 53.9021 86.8352 44.2818C84.8184 34.6615 91.1517 26.8627 100.982 26.8627C110.811 26.8627 120.414 34.6615 122.431 44.2818ZM113.418 44.282C114.413 49.03 111.287 52.8791 106.436 52.8791C101.584 52.8791 96.8452 49.03 95.8498 44.282C94.8544 39.5341 97.98 35.685 102.831 35.685C107.683 35.685 112.423 39.5341 113.418 44.282Z" fill="black"/>
<path d="M219.843 77.3938C219.843 78.0041 220.338 78.4994 220.949 78.4994H229.354C229.964 78.4994 230.459 78.0041 230.459 77.3938V37.028H220.949C220.338 37.028 219.843 37.523 219.843 38.1337V77.3938Z" fill="black"/>
<path d="M220.186 30.4599C221.204 31.5291 222.756 32.0637 224.844 32.0637C226.931 32.0637 228.459 31.5291 229.427 30.4599C230.394 29.3398 230.877 27.9651 230.877 26.3357C230.877 24.6046 230.394 23.2043 229.427 22.1352C228.459 21.066 226.931 20.5313 224.844 20.5313C222.756 20.5313 221.204 21.066 220.186 22.1352C219.218 23.2043 218.734 24.6046 218.734 26.3357C218.734 27.9651 219.218 29.3398 220.186 30.4599Z" fill="black"/>
<path fill-rule="evenodd" clip-rule="evenodd" d="M203.109 59.1001C199.85 60.6281 195.879 61.391 191.195 61.391H182.794V77.3938C182.794 78.0041 182.298 78.4994 181.688 78.4994H173.054C172.444 78.4994 171.949 78.0041 171.949 77.3938V23.4699C171.949 22.8593 172.444 22.3643 173.054 22.3643H181.688C181.807 22.3643 181.922 22.3832 182.03 22.4181C182.138 22.3832 182.253 22.3643 182.372 22.3643H191.195C195.879 22.3643 199.85 23.1281 203.109 24.6555C206.419 26.183 208.939 28.3724 210.67 31.2237C212.401 34.024 213.267 37.359 213.267 41.2286V42.4506C213.267 46.3202 212.401 49.6806 210.67 52.5319C208.939 55.3321 206.419 57.5213 203.109 59.1001ZM197.61 33.0566C196.134 32.1911 194.301 31.7582 192.112 31.7582H182.794V51.9974H192.112C194.301 51.9974 196.134 51.5645 197.61 50.6989C199.138 49.8334 200.283 48.6368 201.047 47.1094C201.862 45.5819 202.269 43.8254 202.269 41.8395C202.269 39.8538 201.862 38.0972 201.047 36.5698C200.283 35.0423 199.138 33.8713 197.61 33.0566Z" fill="black"/>
<path d="M239.981 78.4994C239.371 78.4994 238.875 78.0041 238.875 77.3938V38.1337C238.875 37.523 239.371 37.0281 239.981 37.0281H246.171C246.782 37.0281 247.277 37.523 247.277 38.1337V47.2476C247.522 46.184 247.828 45.1959 248.194 44.2835C249.314 41.4322 250.968 39.2938 253.158 37.8681C255.398 36.4425 258.173 35.7296 261.482 35.7296H261.94C266.88 35.7296 270.621 37.3335 273.167 40.5412C275.713 43.698 276.986 48.4331 276.986 54.7467V77.3938C276.986 78.0041 276.491 78.4994 275.881 78.4994H267.476C266.865 78.4994 266.37 78.0041 266.37 77.3938V53.8302C266.37 51.2844 265.631 49.2223 264.155 47.6439C262.729 46.0656 260.743 45.2764 258.198 45.2764C255.601 45.2764 253.488 46.0911 251.859 47.7203C250.281 49.2987 249.492 51.4372 249.492 54.1357V77.3938C249.492 78.0041 248.996 78.4994 248.386 78.4994H239.981Z" fill="black"/>
<path fill-rule="evenodd" clip-rule="evenodd" d="M316.581 59.1001C313.323 60.6281 309.351 61.391 304.667 61.391H296.266V77.3938C296.266 78.0041 295.771 78.4994 295.16 78.4994H286.526C285.915 78.4994 285.42 78.0041 285.42 77.3938V23.4699C285.42 22.8593 285.915 22.3643 286.526 22.3643H295.16C295.279 22.3643 295.394 22.3832 295.502 22.4181C295.609 22.3832 295.724 22.3643 295.844 22.3643H304.667C309.351 22.3643 313.323 23.1281 316.581 24.6555C319.89 26.183 322.411 28.3724 324.142 31.2237C325.874 34.024 326.738 37.359 326.738 41.2286V42.4506C326.738 46.3202 325.874 49.6806 324.142 52.5319C322.411 55.3321 319.89 57.5213 316.581 59.1001ZM311.083 33.0566C309.605 32.1911 307.772 31.7582 305.583 31.7582H296.266V51.9974H305.583C307.772 51.9974 309.605 51.5645 311.083 50.6989C312.609 49.8334 313.755 48.6368 314.519 47.1094C315.334 45.5819 315.741 43.8254 315.741 41.8395C315.741 39.8538 315.334 38.0972 314.519 36.5698C313.755 35.0423 312.609 33.8713 311.083 33.0566Z" fill="black"/>
<path fill-rule="evenodd" clip-rule="evenodd" d="M350.368 79.9499C346.702 79.9499 343.469 79.3651 340.668 78.1931C337.869 77.0223 335.5 75.4445 333.565 73.4588C331.631 71.4212 330.155 69.1303 329.136 66.5852C328.169 64.0389 327.685 61.3909 327.685 58.6412V57.0381C327.685 54.1867 328.194 51.4881 329.213 48.9423C330.282 46.3456 331.783 44.0544 333.718 42.0687C335.704 40.032 338.097 38.4536 340.898 37.3335C343.698 36.1624 346.855 35.5769 350.368 35.5769C353.881 35.5769 357.038 36.1624 359.838 37.3335C362.639 38.4536 365.006 40.032 366.941 42.0687C368.927 44.0544 370.429 46.3456 371.447 48.9423C372.466 51.4881 372.974 54.1867 372.974 57.0381V58.6412C372.974 61.3909 372.466 64.0389 371.447 66.5852C370.48 69.1303 369.028 71.4212 367.094 73.4588C365.159 75.4445 362.792 77.0223 359.991 78.1931C357.19 79.3651 353.983 79.9499 350.368 79.9499ZM350.368 70.8617C352.965 70.8617 355.154 70.3012 356.936 69.1812C358.718 68.0103 360.067 66.4569 360.984 64.5221C361.9 62.5364 362.358 60.2964 362.358 57.8021C362.358 55.2559 361.875 53.0156 360.908 51.0808C359.991 49.095 358.617 47.5421 356.784 46.422C355.001 45.2509 352.863 44.6654 350.368 44.6654C347.873 44.6654 345.71 45.2509 343.876 46.422C342.094 47.5421 340.72 49.095 339.753 51.0808C338.785 53.0156 338.301 55.2559 338.301 57.8021C338.301 60.2964 338.76 62.5364 339.675 64.5221C340.643 66.4569 342.018 68.0103 343.8 69.1812C345.581 70.3012 347.772 70.8617 350.368 70.8617Z" fill="black"/>
<path d="M380.437 77.3938C380.437 78.0041 380.933 78.4994 381.543 78.4994H389.948C390.558 78.4994 391.054 78.0041 391.054 77.3938V37.028H381.543C380.933 37.028 380.437 37.523 380.437 38.1337V77.3938Z" fill="black"/>
<path d="M380.779 30.4599C381.797 31.5291 383.351 32.0637 385.438 32.0637C387.525 32.0637 389.052 31.5291 390.02 30.4599C390.987 29.3398 391.471 27.9651 391.471 26.3357C391.471 24.6046 390.987 23.2043 390.02 22.1352C389.052 21.066 387.525 20.5313 385.438 20.5313C383.351 20.5313 381.797 21.066 380.779 22.1352C379.812 23.2043 379.328 24.6046 379.328 26.3357C379.328 27.9651 379.812 29.3398 380.779 30.4599Z" fill="black"/>
<path d="M400.575 78.4994C399.964 78.4994 399.47 78.0041 399.47 77.3938V38.1337C399.47 37.523 399.964 37.0281 400.575 37.0281H406.764C407.375 37.0281 407.87 37.523 407.87 38.1337V47.2476C408.117 46.1839 408.422 45.1959 408.787 44.2835C409.907 41.4322 411.562 39.2938 413.751 37.8681C415.991 36.4425 418.766 35.7296 422.076 35.7296H422.534C427.473 35.7296 431.215 37.3335 433.761 40.5412C436.307 43.698 437.579 48.4331 437.579 54.7467V77.3938C437.579 78.0041 437.085 78.4994 436.474 78.4994H428.07C427.458 78.4994 426.964 78.0041 426.964 77.3938V53.8302C426.964 51.2844 426.226 49.2223 424.749 47.6439C423.323 46.0656 421.338 45.2764 418.791 45.2764C416.195 45.2764 414.081 46.0911 412.453 47.7203C410.874 49.2987 410.085 51.4372 410.085 54.1357V77.3938C410.085 78.0041 409.59 78.4994 408.979 78.4994H400.575Z" fill="black"/>
<path d="M453.728 77.5828C456.222 78.5502 459.38 79.0334 463.199 79.0334H468.05C468.661 79.0334 469.156 78.5381 469.156 77.9278V71.0508C469.156 70.4405 468.661 69.9452 468.05 69.9452H462.664C460.627 69.9452 459.048 69.41 457.928 68.3409C456.859 67.2209 456.325 65.6432 456.325 63.6066L456.362 44.8182H468.05C468.661 44.8182 469.156 44.3231 469.156 43.7125V38.1337C469.156 37.523 468.661 37.028 468.05 37.028H456.377L456.399 26.4506C456.4 25.8391 455.905 25.3428 455.294 25.3428H447.576C446.966 25.3428 446.472 25.8365 446.471 26.4462L446.449 37.028H440.934C440.324 37.028 439.828 37.523 439.828 38.1337V43.7125C439.828 44.3231 440.324 44.8182 440.934 44.8182H446.433L446.396 62.9189C446.396 66.9412 447.007 70.1486 448.229 72.5423C449.452 74.884 451.284 76.5645 453.728 77.5828Z" fill="black"/>
</svg>
