<svg width="512" height="512" viewBox="0 0 512 512" fill="none" xmlns="http://www.w3.org/2000/svg">
<g clip-path="url(#clip0_86_6)">
<path d="M361.284 0C501.183 0 512 10.8169 512 150.715V361.284C512 501.183 501.183 512 361.284 512H150.715C10.8169 512 0 501.183 0 361.284V150.715C0 10.8169 10.8169 0 150.715 0H361.284ZM166.941 396.98V188.575H102.039V396.98H166.941ZM134.49 158.648C155.403 158.648 172.349 141.701 172.349 120.789C172.349 99.8761 155.403 82.9296 134.49 82.9296C113.577 82.9296 96.631 99.8761 96.631 120.789C96.631 141.701 113.577 158.648 134.49 158.648ZM409.6 396.98V282.682C409.6 226.434 397.341 183.527 332.079 183.527C300.71 183.527 279.437 200.834 270.783 217.059H270.062V188.575H207.684V396.98H272.225V293.859C272.225 266.817 277.273 240.496 311.166 240.496C344.338 240.496 344.699 271.504 344.699 295.662V396.98H409.6Z" fill="black"/>
</g>
<defs>
<clipPath id="clip0_86_6">
<rect width="512" height="512" fill="white"/>
</clipPath>
</defs>
</svg>
