<svg width="512" height="107" viewBox="0 0 512 107" fill="none" xmlns="http://www.w3.org/2000/svg">
<path d="M19.9701 0H1.76906C0.792009 0 0 0.792009 0 1.76906V36.0659L19.9701 0Z" fill="black"/>
<path d="M0 47.0972C0.0574945 47.0997 0.11552 47.1011 0.174076 47.1011H27.9232C30.0953 47.1011 31.8019 48.9566 31.6167 51.117L29.2155 79.1207C28.8743 83.1001 34.2177 84.7219 36.1532 81.2265L64.9873 29.1518C66.3529 26.6856 64.566 23.6614 61.7431 23.6614H33.9939C31.8219 23.6614 30.1153 21.8058 30.3005 19.6456L31.985 0H59.9873C85.7912 0 97.3585 32.4561 77.4014 48.8636L61.8004 61.69C60.7786 62.5301 60.5774 64.0193 61.3394 65.102L88.2602 103.356C89.0864 104.529 88.2479 106.144 86.814 106.144H1.76906C0.792009 106.144 0 105.351 0 104.375V47.0972Z" fill="black"/>
<path d="M303.139 57.46V84.2809H317.953V54.168C317.953 50.6178 317.18 47.5193 315.631 44.8726C314.146 42.1612 312.016 40.0631 309.241 38.579C306.463 37.0293 303.237 36.2546 299.557 36.2546C295.943 36.2546 292.746 37.0293 289.972 38.579C289.234 38.973 288.541 39.4135 287.89 39.8989C287.538 40.1607 287.2 40.4362 286.873 40.7247V15.9216H272.059V84.2809H286.873V57.46C286.873 55.8465 287.228 54.4263 287.94 53.1998C288.649 51.9084 289.617 50.94 290.843 50.2948C292.07 49.5847 293.489 49.2296 295.102 49.2296C297.427 49.2296 299.332 50.0045 300.817 51.5533C302.366 53.0383 303.139 55.0069 303.139 57.46Z" fill="black"/>
<path fill-rule="evenodd" clip-rule="evenodd" d="M138.542 56.1047V84.2809H123.342V15.9216H151.226C155.746 15.9216 159.716 16.7932 163.138 18.5354C166.557 20.2138 169.237 22.5702 171.174 25.6038C173.11 28.6376 174.077 32.1239 174.077 36.0611C174.077 40.0631 173.11 43.5814 171.174 46.615C169.237 49.5847 166.527 51.9083 163.04 53.5867C161.096 54.523 158.961 55.1984 156.634 55.6122L178.534 84.2809H160.523L140.134 56.1047H138.542ZM138.542 44.8726H149.388C152.422 44.8726 154.747 44.0978 156.36 42.5482C158.037 40.9994 158.878 38.9011 158.878 36.2546C158.878 33.8022 158.071 31.7688 156.456 30.1553C154.842 28.5408 152.52 27.7339 149.486 27.7339H138.542V44.8726Z" fill="black"/>
<path fill-rule="evenodd" clip-rule="evenodd" d="M188.31 82.2475C192.313 84.3129 196.863 85.346 201.961 85.346C205.901 85.346 209.515 84.6679 212.807 83.3125C216.098 81.9563 218.907 79.9229 221.232 77.2124L213.098 69.0788C211.677 70.6923 210.032 71.919 208.158 72.7586C206.287 73.5326 204.19 73.9205 201.864 73.9205C199.348 73.9205 197.153 73.4039 195.281 72.3708C193.473 71.2738 192.055 69.7568 191.021 67.8203C190.696 67.1482 190.427 66.433 190.211 65.6737L223.942 65.5934C224.2 64.3669 224.361 63.3017 224.425 62.3983C224.471 62.0606 224.506 61.7313 224.536 61.4092C224.552 61.2494 224.563 61.0922 224.574 60.9367C224.589 60.7026 224.602 60.4728 224.609 60.2474L224.616 59.9985L224.619 59.6868C224.619 55.1034 223.588 51.0366 221.522 47.4865C219.521 43.9362 216.745 41.1608 213.195 39.1593C209.644 37.1589 205.544 36.1578 200.898 36.1578C196.12 36.1578 191.828 37.2227 188.019 39.3529C184.211 41.483 181.177 44.4209 178.918 48.1646C176.722 51.8435 175.625 56.0397 175.625 60.7518C175.625 65.4639 176.756 69.6921 179.013 73.4358C181.274 77.1795 184.373 80.1174 188.31 82.2475ZM190.215 55.5042C190.287 55.252 190.365 55.005 190.448 54.7632C190.59 54.3554 190.747 53.9623 190.924 53.5866C191.894 51.65 193.217 50.165 194.894 49.1328C196.636 48.0349 198.671 47.4865 200.994 47.4865C203.187 47.4865 205.027 47.971 206.513 48.9394L206.713 49.0585L206.911 49.1855C207.079 49.2969 207.24 49.4144 207.398 49.5372C207.552 49.6571 207.702 49.7833 207.847 49.9145C208.747 50.7301 209.464 51.7605 209.998 53.0061C210.324 53.7352 210.586 54.548 210.785 55.4455L190.215 55.5042Z" fill="black"/>
<path d="M250.653 85.346C245.809 85.346 241.42 84.2808 237.482 82.1507C233.546 80.0206 230.449 77.0829 228.188 73.339C225.929 69.5953 224.798 65.3991 224.798 60.7518C224.798 56.0397 225.929 51.8435 228.188 48.1646C230.512 44.4209 233.642 41.483 237.58 39.3529C241.518 37.2227 245.938 36.1578 250.846 36.1578C254.524 36.1578 257.88 36.8038 260.915 38.0944C262.462 38.7068 263.921 39.4799 265.29 40.4136C266.663 41.3509 267.949 42.4496 269.145 43.7108L259.656 53.1997C258.559 51.973 257.268 51.0695 255.783 50.4882C255.113 50.2144 254.395 50.0053 253.623 49.8602C253.271 49.7937 252.91 49.741 252.539 49.7021C252.155 49.6615 251.76 49.6355 251.354 49.6244C251.185 49.6191 251.017 49.6166 250.846 49.6166C250.322 49.6166 249.813 49.646 249.317 49.7038L249.05 49.7383L248.884 49.7626C248.712 49.7893 248.541 49.8204 248.371 49.8542C247.21 50.0874 246.131 50.4925 245.132 51.0695C243.518 51.973 242.229 53.2635 241.259 54.9418C240.355 56.5563 239.902 58.4601 239.902 60.655C239.902 62.8499 240.355 64.7867 241.259 66.4641C242.229 68.1424 243.552 69.4658 245.229 70.4342C246.906 71.4024 248.78 71.887 250.846 71.887C252.783 71.887 254.492 71.5639 255.976 70.9188C257.526 70.2087 258.849 69.2403 259.946 68.0138L269.34 77.5027C266.886 80.0844 264.11 82.0531 261.013 83.4092C257.913 84.6998 254.46 85.346 250.653 85.346Z" fill="black"/>
<path fill-rule="evenodd" clip-rule="evenodd" d="M343.251 85.2492C338.927 85.2492 335.053 84.1841 331.634 82.053C328.276 79.9229 325.598 77.0188 323.597 73.339C321.66 69.6602 320.69 65.4638 320.69 60.7518C320.69 56.0397 321.66 51.8435 323.597 48.1645C325.598 44.4847 328.276 41.5806 331.634 39.4496C335.053 37.3195 338.927 36.2545 343.251 36.2545C346.414 36.2545 349.255 36.8677 351.773 38.0943C353.466 38.8986 354.95 39.9108 356.225 41.1306V37.2227H370.749V84.2808H356.225V80.468C355.353 81.2929 354.373 82.0237 353.287 82.6604C353.089 82.7769 352.885 82.8911 352.678 83.0016C352.415 83.1423 352.144 83.2779 351.868 83.4092C349.287 84.6359 346.414 85.2492 343.251 85.2492ZM346.255 71.8869C349.418 71.8869 351.965 70.854 353.902 68.7886C355.84 66.6585 356.807 63.9789 356.807 60.7518C356.807 59.6539 356.694 58.6208 356.468 57.6526C356.241 56.6842 355.903 55.7805 355.452 54.9418C354.612 53.2635 353.386 51.973 351.773 51.0695C350.9 50.5245 349.947 50.1332 348.912 49.8947C348.107 49.7089 347.254 49.6166 346.35 49.6166C345.319 49.6166 344.342 49.7374 343.424 49.9794C342.864 50.127 342.322 50.3196 341.804 50.5572C341.471 50.7093 341.148 50.8802 340.831 51.0695C339.281 51.973 338.023 53.2635 337.054 54.9418C336.152 56.6203 335.701 58.5569 335.701 60.7518C335.701 62.8819 336.152 64.7866 337.054 66.4641C337.958 68.1424 339.218 69.4658 340.831 70.4342C342.444 71.4024 344.252 71.8869 346.255 71.8869Z" fill="black"/>
<path d="M392.121 37.2227H377.307V84.2808H392.121V58.4281C392.121 55.3936 392.832 53.1347 394.251 51.6499C395.737 50.1011 397.706 49.3263 400.158 49.3263C401.386 49.3263 402.483 49.5198 403.452 49.9076C404.418 50.2947 405.227 50.8431 405.872 51.5532L414.682 40.418C413.392 38.9978 411.875 37.9656 410.132 37.3195C408.455 36.6094 406.484 36.2545 404.225 36.2545C399.061 36.2545 395.028 37.7722 392.121 40.8058V37.2227Z" fill="black"/>
<path fill-rule="evenodd" clip-rule="evenodd" d="M433.379 105.388C428.215 105.388 423.664 104.484 419.728 102.678C415.853 100.935 412.787 98.4499 410.528 95.2214L419.628 86.1199C421.307 88.1213 423.181 89.6382 425.245 90.6714C427.375 91.7027 429.924 92.2193 432.895 92.2193C436.574 92.2193 439.445 91.3171 441.512 89.5091C443.642 87.7015 444.708 85.1516 444.708 81.8595V78.8873C443.7 79.694 442.57 80.3937 441.319 80.9881C438.736 82.2146 435.865 82.8279 432.702 82.8279C428.375 82.8279 424.536 81.7956 421.178 79.7294C417.822 77.6642 415.176 74.856 413.239 71.3056C411.302 67.7555 410.334 63.8183 410.334 59.4933C410.334 55.1033 411.302 51.1663 413.239 47.6798C415.176 44.1297 417.822 41.3544 421.178 39.3529C424.536 37.2875 428.375 36.2545 432.702 36.2545C435.929 36.2545 438.802 36.8677 441.319 38.0943C441.551 38.198 441.777 38.3059 442 38.4183C443.099 38.9729 444.098 39.6285 444.999 40.3851V37.2227H459.523V81.4726C459.523 86.3142 458.392 90.5104 456.133 94.0591C453.874 97.6096 450.776 100.385 446.838 102.386C442.899 104.389 438.414 105.388 433.379 105.388ZM435.509 69.6602C437.576 69.6602 439.35 69.2075 440.834 68.3041C441.215 68.0821 441.572 67.8418 441.906 67.5844C442.931 66.7958 443.735 65.8414 444.319 64.7217C444.57 64.2605 444.783 63.7829 444.956 63.2879C445.184 62.6461 445.351 61.9749 445.453 61.2752C445.538 60.7008 445.579 60.1066 445.579 59.4933C445.579 57.5567 445.16 55.8134 444.319 54.2646C443.546 52.7149 442.382 51.4884 440.834 50.5848C439.35 49.6813 437.576 49.2295 435.509 49.2295C434.899 49.2295 434.312 49.272 433.744 49.3557L433.447 49.4041L433.185 49.4524C432.622 49.5656 432.081 49.7219 431.563 49.9214C431.272 50.0329 430.989 50.1581 430.715 50.2964C430.535 50.387 430.36 50.4829 430.184 50.5848C428.635 51.4884 427.441 52.7149 426.602 54.2646C426.163 55.0715 425.84 55.9309 425.631 56.843C425.438 57.6819 425.343 58.5656 425.343 59.4933C425.343 61.3004 425.762 63.0107 426.602 64.6251C427.441 66.1738 428.601 67.4004 430.087 68.3041C430.919 68.7895 431.826 69.1453 432.808 69.3699C433.654 69.5635 434.554 69.6602 435.509 69.6602Z" fill="black"/>
<path fill-rule="evenodd" clip-rule="evenodd" d="M475.692 82.2475C479.692 84.3129 484.243 85.346 489.342 85.346C493.28 85.346 496.896 84.6679 500.186 83.3125C503.48 81.9563 506.286 79.9229 508.61 77.2124L500.476 69.0788C499.058 70.6923 497.412 71.919 495.539 72.7586C493.669 73.5326 491.569 73.9205 489.246 73.9205C486.729 73.9205 484.534 73.4039 482.662 72.3708C481.37 71.5882 480.279 70.5913 479.384 69.3804C479.24 69.1877 479.104 68.9891 478.972 68.7851C478.77 68.4768 478.579 68.1546 478.402 67.8203C478.076 67.1482 477.806 66.433 477.59 65.6737L511.322 65.5934C511.45 64.9878 511.554 64.4212 511.634 63.8944C511.717 63.3535 511.774 62.8552 511.807 62.3983C511.851 62.057 511.889 61.7235 511.919 61.3987C511.972 60.801 512 60.2301 512 59.6868C512 55.1034 510.967 51.0366 508.902 47.4865C506.9 43.9362 504.126 41.1608 500.575 39.1593C497.023 37.1589 492.926 36.1578 488.279 36.1578C483.502 36.1578 479.209 37.2227 475.398 39.3529C471.591 41.483 468.557 44.4209 466.298 48.1646C464.104 51.8435 463.006 56.0397 463.006 60.7518C463.006 65.4639 464.135 69.6921 466.395 73.4358C468.654 77.1795 471.752 80.1174 475.692 82.2475ZM477.597 55.5042C477.79 54.8253 478.025 54.1852 478.305 53.5866C478.858 52.4809 479.525 51.5229 480.309 50.7127C480.583 50.4286 480.873 50.1625 481.178 49.9145C481.524 49.6304 481.889 49.3695 482.274 49.1328C484.019 48.0349 486.051 47.4865 488.374 47.4865C490.57 47.4865 492.409 47.971 493.894 48.9394C494.486 49.2849 495.021 49.696 495.5 50.1737C496.273 50.9452 496.901 51.8891 497.379 53.0061C497.702 53.7352 497.964 54.548 498.166 55.4455L477.597 55.5042Z" fill="black"/>
</svg>
