<svg width="512" height="512" viewBox="0 0 512 512" fill="none" xmlns="http://www.w3.org/2000/svg">
<g clip-path="url(#clip0_86_2)">
<path fill-rule="evenodd" clip-rule="evenodd" d="M455.111 0H56.8889C25.4578 0 0 25.4578 0 56.8889V455.111C0 486.542 25.4578 512 56.8889 512H273.664V313.998H207.019V236.487H273.664V179.456C273.664 113.351 314.084 77.312 373.077 77.312C392.96 77.2551 412.814 78.2791 432.583 80.2987V149.419H391.964C359.822 149.419 353.564 164.608 353.564 187.022V236.373H430.364L420.38 313.884H353.109V512H455.111C486.542 512 512 486.542 512 455.111V56.8889C512 25.4578 486.542 0 455.111 0Z" fill="black"/>
</g>
<defs>
<clipPath id="clip0_86_2">
<rect width="512" height="512" fill="white"/>
</clipPath>
</defs>
</svg>
