<svg width="512" height="107" viewBox="0 0 512 107" fill="none" xmlns="http://www.w3.org/2000/svg">
<path d="M207.423 29.3959V105.275H188.94V74.0366H160.187V105.275H141.704V29.3959H160.187V59.1205H188.94V29.3959H207.423Z" fill="black"/>
<path d="M225.738 38.6916C222.495 38.6916 219.829 37.7548 217.74 35.8813C215.722 33.9356 214.713 31.5576 214.713 28.7473C214.713 25.865 215.722 23.487 217.74 21.6134C219.829 19.6678 222.495 18.6951 225.738 18.6951C228.909 18.6951 231.503 19.6678 233.52 21.6134C235.611 23.487 236.655 25.865 236.655 28.7473C236.655 31.5576 235.611 33.9356 233.52 35.8813C231.503 37.7548 228.909 38.6916 225.738 38.6916ZM234.926 44.9608V105.275H216.442V44.9608H234.926Z" fill="black"/>
<path d="M277.613 89.6023V105.275H268.209C261.507 105.275 256.283 103.653 252.537 100.411C248.789 97.0959 246.916 91.7283 246.916 84.3057V60.3096H239.566V44.9608H246.916V30.2606H265.399V44.9608H277.505V60.3096H265.399V84.5217C265.399 86.3237 265.831 87.6198 266.695 88.4128C267.561 89.2058 269.002 89.6023 271.02 89.6023H277.613Z" fill="black"/>
<path d="M340.44 74.1446C340.44 75.8741 340.332 77.6761 340.116 79.5492H298.285C298.573 83.2967 299.763 86.1788 301.852 88.1968C304.013 90.1423 306.644 91.1157 309.742 91.1157C314.355 91.1157 317.561 89.1688 319.363 85.2778H339.034C338.025 89.2413 336.188 92.8083 333.522 95.9789C330.928 99.1495 327.65 101.636 323.686 103.437C319.723 105.239 315.291 106.14 310.391 106.14C304.482 106.14 299.221 104.878 294.61 102.357C289.998 99.8344 286.396 96.2318 283.801 91.5478C281.207 86.8637 279.909 81.3867 279.909 75.1181C279.909 68.848 281.171 63.3721 283.693 58.6882C286.288 54.0043 289.89 50.4013 294.502 47.8792C299.113 45.3571 304.41 44.0961 310.391 44.0961C316.228 44.0961 321.417 45.3211 325.956 47.7712C330.496 50.2212 334.026 53.7161 336.549 58.2559C339.142 62.7956 340.44 68.092 340.44 74.1446ZM321.525 69.2814C321.525 66.1103 320.443 63.5883 318.282 61.7146C316.12 59.8412 313.417 58.9044 310.175 58.9044C307.076 58.9044 304.447 59.8051 302.284 61.6066C300.195 63.4081 298.897 65.9662 298.393 69.2814H321.525Z" fill="black"/>
<path d="M342.193 75.1181C342.193 68.848 343.453 63.3721 345.976 58.6882C348.569 54.0043 352.136 50.4013 356.677 47.8792C361.288 45.3571 366.548 44.0961 372.457 44.0961C380.023 44.0961 386.329 46.0778 391.372 50.041C396.49 54.0043 399.839 59.5889 401.425 66.7949H381.753C380.096 62.183 376.89 59.8771 372.133 59.8771C368.746 59.8771 366.043 61.2103 364.027 63.8765C362.009 66.4706 361 70.218 361 75.1181C361 80.0181 362.009 83.8012 364.027 86.4672C366.043 89.0608 368.746 90.3583 372.133 90.3583C376.89 90.3583 380.096 88.0532 381.753 83.4402H401.425C399.839 90.5032 396.49 96.0514 391.372 100.086C386.256 104.122 379.952 106.14 372.457 106.14C366.548 106.14 361.288 104.878 356.677 102.357C352.136 99.8344 348.569 96.2318 345.976 91.5478C343.453 86.8637 342.193 81.3867 342.193 75.1181Z" fill="black"/>
<path d="M444.063 44.3123C450.981 44.3123 456.529 46.6182 460.709 51.2299C464.889 55.7697 466.979 62.0389 466.979 70.0375V105.275H448.604V72.5231C448.604 68.4884 447.558 65.3537 445.469 63.1198C443.378 60.886 440.569 59.7691 437.037 59.7691C433.507 59.7691 430.696 60.886 428.607 63.1198C426.516 65.3537 425.472 68.4884 425.472 72.5231V105.275H406.989V25.2884H425.472V53.0674C427.345 50.4013 429.903 48.2755 433.146 46.6902C436.389 45.1048 440.029 44.3123 444.063 44.3123Z" fill="black"/>
<path d="M46 65.6119V0H67.8753V33.7276C71.6932 32.2538 75.8423 31.4458 80.1802 31.4458C99.0573 31.4458 114.36 46.7488 114.36 65.6259V105.275H92.485V65.6259C92.485 58.8302 86.9759 53.3211 80.1802 53.3211C73.3873 53.3211 67.8801 58.8253 67.8753 65.6169C67.8753 65.6199 67.8753 65.6229 67.8753 65.6259V105.275H46V65.6259C46 65.6213 46 65.6165 46 65.6119Z" fill="black"/>
<path d="M92.485 21.8753V0H114.36V21.8753H92.485Z" fill="black"/>
</svg>
