<svg width="512" height="107" viewBox="0 0 512 107" fill="none" xmlns="http://www.w3.org/2000/svg">
<path d="M146.867 87.7657L152.184 86.4364V29.7191L146.867 28.3898V27.0604H170.795C179.775 27.0604 186.363 28.5079 190.557 31.4029C194.811 34.2388 196.938 37.9608 196.938 42.569C196.938 45.7596 196.022 48.3296 194.191 50.2787C192.359 52.2287 190.026 53.676 187.189 54.6215C184.176 55.6851 180.927 56.246 177.441 56.305V56.7486C181.754 56.9258 185.506 57.5752 188.696 58.6978C191.945 59.7614 194.633 61.4162 196.76 63.6606C198.947 65.9058 200.04 68.7717 200.04 72.2568C200.04 77.5155 197.883 81.6508 193.57 84.6644C189.257 87.6181 182.256 89.0949 172.567 89.0949H146.867V87.7657ZM170.795 55.4194C172.745 55.4194 174.546 54.8872 176.2 53.8237C177.914 52.7011 179.273 51.1652 180.277 49.216C181.341 47.207 181.872 44.9913 181.872 42.569C181.872 39.9696 181.341 37.6654 180.277 35.6566C179.273 33.6479 177.914 32.0823 176.2 30.9598C174.546 29.8373 172.745 29.2759 170.795 29.2759H166.807V55.4194H170.795ZM172.567 86.8792C176.23 86.8792 179.214 85.5795 181.518 82.9801C183.822 80.3806 184.974 76.8062 184.974 72.2568C184.974 67.7081 183.822 64.1337 181.518 61.5342C179.214 58.9348 176.23 57.6343 172.567 57.6343H166.807V86.8792H172.567Z" fill="black"/>
<path d="M201.784 87.7657L207.102 86.4364V29.7191L201.784 28.3898V27.0604H213.305C218.622 27.0604 221.281 29.7191 221.281 35.0363V86.4364L226.598 87.7657V89.0949H201.784V87.7657Z" fill="black"/>
<path d="M250.955 90.4242C243.629 90.4242 237.869 88.3569 233.674 84.2208C229.538 80.0264 227.471 74.2658 227.471 66.9398C227.471 59.6138 229.538 53.8827 233.674 49.7474C237.869 45.553 243.629 43.4554 250.955 43.4554C258.281 43.4554 264.011 45.553 268.148 49.7474C272.342 53.8827 274.44 59.6138 274.44 66.9398C274.44 74.2658 272.342 80.0264 268.148 84.2208C264.011 88.3569 258.281 90.4242 250.955 90.4242ZM250.955 88.6521C253.318 88.6521 255.297 86.9973 256.893 83.6894C258.547 80.3806 259.374 74.7972 259.374 66.9398C259.374 59.0824 258.547 53.4989 256.893 50.1902C255.297 46.8822 253.318 45.2274 250.955 45.2274C248.592 45.2274 246.583 46.8822 244.929 50.1902C243.333 53.4989 242.536 59.0824 242.536 66.9398C242.536 74.7972 243.333 80.3806 244.929 83.6894C246.583 86.9973 248.592 88.6521 250.955 88.6521Z" fill="black"/>
<path d="M297.955 90.4242C294.292 90.4242 291.013 89.6271 288.118 88.0314C286.7 87.2638 285.548 86.4364 284.662 85.55C283.716 86.8497 282.683 87.8542 281.561 88.5636C281.028 88.9178 280.438 89.2425 279.788 89.5386H277.572V74.4724H281.117C281.885 76.9538 283.008 79.258 284.485 81.3852C287.616 85.9346 291.516 88.2085 296.183 88.2085C298.664 88.2085 300.525 87.6181 301.766 86.4364C303.065 85.1958 303.716 83.4237 303.716 81.1195C303.716 79.1695 302.829 77.545 301.057 76.2453C299.343 74.8865 296.626 73.2318 292.904 71.2826C289.713 69.6868 287.114 68.269 285.105 67.0283C283.155 65.7286 281.472 64.1337 280.053 62.2427C278.695 60.2936 278.016 58.0188 278.016 55.4194C278.016 51.8745 279.522 49.0085 282.535 46.8232C285.607 44.578 290.304 43.4554 296.626 43.4554C299.757 43.4554 302.652 44.2828 305.311 45.9368C306.61 46.7051 307.733 47.5022 308.678 48.3296C309.446 47.266 310.48 46.2615 311.78 45.316C312.784 44.7256 313.375 44.4009 313.553 44.3418H315.768V59.4071H312.223C311.337 56.8667 310.244 54.592 308.944 52.583C305.99 47.9753 302.475 45.6711 298.398 45.6711C296.803 45.6711 295.444 46.2615 294.322 47.4431C293.199 48.6248 292.638 50.1016 292.638 51.8745C292.638 54.1197 293.583 56.0098 295.474 57.5457C297.365 59.0234 300.23 60.7364 304.07 62.6864C307.202 64.2813 309.683 65.6991 311.514 66.9398C313.405 68.1214 315 69.5983 316.3 71.3711C317.658 73.1432 318.338 75.2113 318.338 77.5745C318.338 86.1412 311.544 90.4242 297.955 90.4242Z" fill="black"/>
<path d="M341.383 90.4242C337.72 90.4242 334.441 89.6271 331.546 88.0314C330.128 87.2638 328.976 86.4364 328.09 85.55C327.144 86.8497 326.11 87.8542 324.988 88.5636C324.456 88.9178 323.865 89.2425 323.216 89.5386H321V74.4724H324.545C325.313 76.9538 326.435 79.258 327.913 81.3852C331.043 85.9346 334.943 88.2085 339.61 88.2085C342.092 88.2085 343.953 87.6181 345.194 86.4364C346.493 85.1958 347.143 83.4237 347.143 81.1195C347.143 79.1695 346.257 77.545 344.484 76.2453C342.771 74.8865 340.054 73.2318 336.332 71.2826C333.141 69.6868 330.542 68.269 328.533 67.0283C326.583 65.7286 324.899 64.1337 323.481 62.2427C322.123 60.2936 321.443 58.0188 321.443 55.4194C321.443 51.8745 322.95 49.0085 325.963 46.8232C329.035 44.578 333.732 43.4554 340.054 43.4554C343.185 43.4554 346.079 44.2828 348.739 45.9368C350.038 46.7051 351.161 47.5022 352.106 48.3296C352.874 47.266 353.908 46.2615 355.208 45.316C356.212 44.7256 356.803 44.4009 356.98 44.3418H359.195V59.4071H355.651C354.765 56.8667 353.672 54.592 352.372 52.583C349.418 47.9753 345.902 45.6711 341.826 45.6711C340.231 45.6711 338.872 46.2615 337.75 47.4431C336.627 48.6248 336.065 50.1016 336.065 51.8745C336.065 54.1197 337.011 56.0098 338.902 57.5457C340.792 59.0234 343.658 60.7364 347.498 62.6864C350.629 64.2813 353.11 65.6991 354.942 66.9398C356.832 68.1214 358.428 69.5983 359.728 71.3711C361.086 73.1432 361.765 75.2113 361.765 77.5745C361.765 86.1412 354.972 90.4242 341.383 90.4242Z" fill="black"/>
<path d="M387.469 90.4242C380.143 90.4242 374.383 88.3569 370.188 84.2208C366.052 80.0264 363.984 74.2658 363.984 66.9398C363.984 59.6138 366.052 53.8827 370.188 49.7474C374.383 45.553 380.143 43.4554 387.469 43.4554C394.795 43.4554 400.526 45.553 404.661 49.7474C408.856 53.8827 410.954 59.6138 410.954 66.9398C410.954 74.2658 408.856 80.0264 404.661 84.2208C400.526 88.3569 394.795 90.4242 387.469 90.4242ZM387.469 88.6521C389.832 88.6521 391.812 86.9973 393.406 83.6894C395.061 80.3806 395.888 74.7972 395.888 66.9398C395.888 59.0824 395.061 53.4989 393.406 50.1902C391.812 46.8822 389.832 45.2274 387.469 45.2274C385.106 45.2274 383.097 46.8822 381.443 50.1902C379.847 53.4989 379.05 59.0824 379.05 66.9398C379.05 74.7972 379.847 80.3806 381.443 83.6894C383.097 86.9973 385.106 88.6521 387.469 88.6521Z" fill="black"/>
<path d="M413.644 87.7657L418.961 86.4364V47.4431L413.644 46.1139V44.7846H421.619C425.105 44.7846 427.852 45.9072 429.861 48.1524C430.629 49.038 431.279 50.1311 431.811 51.4308C432.697 49.7769 433.642 48.4476 434.647 47.4431C437.305 44.7846 440.348 43.4554 443.774 43.4554C447.201 43.4554 450.215 44.2237 452.814 45.7596C455.413 47.2365 457.422 49.275 458.84 51.8745C459.726 50.1606 460.671 48.7724 461.676 47.7088C464.393 44.8732 467.436 43.4554 470.803 43.4554C473.935 43.4554 476.741 44.1048 479.223 45.4046C481.763 46.7051 483.713 48.4772 485.072 50.7224C486.49 52.9676 487.199 55.4194 487.199 58.0779V86.4364L492.516 87.7657V89.0949H480.995C475.678 89.0949 473.019 86.4364 473.019 81.1195V58.0779C473.019 54.2378 472.429 51.3718 471.247 49.4817C470.065 47.5317 468.736 46.5567 467.259 46.5567C465.546 46.5567 463.803 47.7383 462.03 50.1016C461.322 51.2242 460.701 52.4058 460.17 53.6465V86.4364L465.486 87.7657V89.0949H440.673V87.7657L445.99 86.4364V58.0779C445.99 54.2378 445.399 51.3718 444.218 49.4817C443.036 47.5317 441.707 46.5567 440.229 46.5567C438.516 46.5567 436.774 47.7383 435.001 50.1016C434.292 51.2242 433.672 52.4058 433.14 53.6465V86.4364L438.457 87.7657V89.0949H413.644V87.7657Z" fill="black"/>
<path fill-rule="evenodd" clip-rule="evenodd" d="M74.7333 106.017C74.1618 106.129 73.5689 106.167 72.9678 106.121C54.4046 104.712 36.834 94.4586 26.823 77.1194C16.8118 59.7794 16.7173 39.4356 24.7797 22.6547C25.9502 20.2184 28.4875 18.7534 31.1827 18.958C38.1004 19.4828 44.8803 21.236 51.1825 24.1266C55.9378 14.8543 62.9735 6.94425 71.5492 1.13666C73.787 -0.378888 76.7145 -0.378888 78.9523 1.13666C87.4115 6.86537 94.3718 14.6398 99.1238 23.7496C105.187 21.0834 111.672 19.4596 118.284 18.958C120.98 18.7534 123.517 20.2184 124.687 22.6547C132.749 39.4356 132.655 59.7794 122.644 77.1194C112.633 94.4586 95.0623 104.712 76.4988 106.121C75.8977 106.167 75.3049 106.129 74.7333 106.017ZM88.3341 95.505C99.4617 91.7206 109.303 84.0412 115.636 73.0735C124.065 58.4739 124.339 41.4021 117.841 27.1181C112.506 27.6357 107.284 29.0003 102.385 31.1548C104.775 37.7287 106.078 44.824 106.078 52.2246C106.078 69.0899 99.3067 84.3733 88.3341 95.505ZM91.9593 27.5125C87.9896 19.8912 82.2381 13.3421 75.2507 8.4147C68.1133 13.4476 62.2658 20.1725 58.2891 28.0036C64.6184 32.0511 70.2413 37.3755 74.7333 43.8629C79.4098 37.1096 85.3115 31.6168 91.9593 27.5125ZM79.318 51.7113C83.3845 44.7756 88.8605 39.1712 95.1763 35.0543C96.9991 40.445 97.9864 46.2197 97.9864 52.2246C97.9864 66.0878 92.7236 78.7234 84.0716 88.2413C86.4128 76.2183 84.9966 63.4129 79.318 51.7113ZM70.1486 51.7113C66.2658 45.0872 61.0956 39.678 55.1373 35.6187C53.4346 40.8469 52.5147 46.4288 52.5147 52.2246C52.5147 65.3768 57.2514 77.4245 65.1252 86.7521C63.1785 75.1653 64.7037 62.9316 70.1486 51.7113ZM74.7333 92.1962C77.7715 82.5356 77.8961 71.9976 74.7333 62.0074C71.5705 71.9976 71.696 82.5356 74.7333 92.1962ZM33.831 73.0735C40.451 84.5389 50.9068 92.4119 62.6569 95.997C51.396 84.8259 44.4225 69.3391 44.4225 52.2246C44.4225 44.9749 45.6738 38.0174 47.972 31.5563C42.8171 29.1693 37.285 27.6671 31.6251 27.1181C25.1277 41.4021 25.4021 58.4739 33.831 73.0735Z" fill="black"/>
</svg>
