<svg width="512" height="107" viewBox="0 0 512 107" fill="none" xmlns="http://www.w3.org/2000/svg">
<path d="M162.246 28.2855C166.629 28.2855 170.423 29.016 173.627 30.4768C176.879 31.9376 179.376 34.0112 181.119 36.6974C182.864 39.3834 183.736 42.5644 183.736 46.2402C183.736 49.8687 182.864 53.0497 181.119 55.783C179.376 58.4691 176.879 60.5426 173.627 62.004C170.423 63.4171 166.629 64.1243 162.246 64.1243H152.279V77.7673H140.828V28.2855H162.246ZM161.611 54.7933C165.05 54.7933 167.666 54.0629 169.456 52.602C171.248 51.094 172.142 48.9734 172.142 46.2402C172.142 43.4597 171.248 41.3391 169.456 39.8783C167.666 38.3702 165.05 37.6163 161.611 37.6163H152.279V54.7933H161.611Z" fill="black"/>
<path d="M198.132 44.7557C199.451 42.9179 201.219 41.5276 203.433 40.5851C205.695 39.6426 208.287 39.1714 211.208 39.1714V49.3505C209.984 49.2562 209.159 49.209 208.734 49.209C205.577 49.209 203.103 50.1045 201.313 51.8952C199.522 53.6388 198.626 56.2778 198.626 59.812V77.7673H187.599V39.7369H198.132V44.7557Z" fill="black"/>
<path d="M231.981 78.3319C227.977 78.3319 224.371 77.5081 221.167 75.8581C218.01 74.1621 215.536 71.8286 213.744 68.8598C211.954 65.891 211.058 62.5215 211.058 58.7518C211.058 54.9819 211.954 51.6125 213.744 48.6436C215.536 45.6746 218.01 43.3656 221.167 41.7162C224.371 40.0197 227.977 39.1714 231.981 39.1714C235.987 39.1714 239.569 40.0197 242.726 41.7162C245.884 43.3656 248.358 45.6746 250.149 48.6436C251.939 51.6125 252.835 54.9819 252.835 58.7518C252.835 62.5215 251.939 65.891 250.149 68.8598C248.358 71.8286 245.884 74.1621 242.726 75.8581C239.569 77.5081 235.987 78.3319 231.981 78.3319ZM231.981 69.2841C234.81 69.2841 237.119 68.3424 238.909 66.4567C240.748 64.525 241.666 61.9569 241.666 58.7518C241.666 55.5474 240.748 53.0026 238.909 51.1176C237.119 49.1855 234.81 48.2194 231.981 48.2194C229.154 48.2194 226.822 49.1855 224.984 51.1176C223.146 53.0026 222.227 55.5474 222.227 58.7518C222.227 61.9569 223.146 64.525 224.984 66.4567C226.822 68.3424 229.154 69.2841 231.981 69.2841Z" fill="black"/>
<path d="M302.831 28.2855V77.7673H293.429L268.758 47.7246V77.7673H257.449V28.2855H266.921L291.52 58.3277V28.2855H302.831Z" fill="black"/>
<path d="M325.565 39.1714C331.456 39.1714 335.979 40.5851 339.136 43.4127C342.294 46.1931 343.873 50.4108 343.873 56.0658V77.7673H333.552V73.0307C331.479 76.5652 327.615 78.3319 321.96 78.3319C319.038 78.3319 316.493 77.8381 314.325 76.8481C312.205 75.8581 310.579 74.4921 309.448 72.7479C308.317 71.0048 307.751 69.0248 307.751 66.8103C307.751 63.2757 309.071 60.4955 311.71 58.4691C314.396 56.4428 318.52 55.4296 324.08 55.4296H332.845C332.845 53.0261 332.116 51.1883 330.654 49.9159C329.193 48.5964 327.002 47.9367 324.08 47.9367C322.054 47.9367 320.051 48.2665 318.072 48.9263C316.14 49.5389 314.49 50.3872 313.123 51.471L309.166 43.7661C311.239 42.3052 313.712 41.1743 316.587 40.3731C319.509 39.572 322.502 39.1714 325.565 39.1714ZM324.717 70.9105C326.601 70.9105 328.275 70.4862 329.735 69.6376C331.196 68.7419 332.232 67.4467 332.845 65.7495V61.8627H325.282C320.758 61.8627 318.496 63.3465 318.496 66.3153C318.496 67.7295 319.038 68.8598 320.121 69.7083C321.253 70.5098 322.784 70.9105 324.717 70.9105Z" fill="black"/>
<path d="M374.847 75.9288C373.764 76.7302 372.42 77.343 370.818 77.7673C369.263 78.1433 367.614 78.3319 365.87 78.3319C361.346 78.3319 357.835 77.178 355.338 74.8692C352.887 72.5593 351.662 69.1662 351.662 64.69V49.0677H345.795V40.5851H351.662V31.325H362.689V40.5851H372.161V49.0677H362.689V64.5486C362.689 66.1502 363.089 67.3995 363.891 68.2952C364.739 69.1426 365.917 69.5669 367.425 69.5669C369.168 69.5669 370.653 69.0955 371.878 68.1538L374.847 75.9288Z" fill="black"/>
<path d="M415.816 39.7369V77.7673H405.354V73.2428C403.894 74.8916 402.149 76.1645 400.123 77.0602C398.096 77.9088 395.905 78.3319 393.549 78.3319C388.553 78.3319 384.596 76.8952 381.673 74.0207C378.751 71.1462 377.291 66.881 377.291 61.2262V39.7369H388.318V59.5998C388.318 65.726 390.887 68.789 396.023 68.789C398.662 68.789 400.783 67.9417 402.385 66.2445C403.987 64.5014 404.788 61.9334 404.788 58.5398V39.7369H415.816Z" fill="black"/>
<path d="M433.03 44.7557C434.349 42.9179 436.117 41.5276 438.331 40.5851C440.593 39.6426 443.186 39.1714 446.107 39.1714V49.3505C444.882 49.2562 444.057 49.209 443.634 49.209C440.475 49.209 438.001 50.1045 436.211 51.8952C434.42 53.6388 433.525 56.2778 433.525 59.812V77.7673H422.497V39.7369H433.03V44.7557Z" fill="black"/>
<path d="M486.037 58.8939C486.037 59.0341 485.966 60.0241 485.825 61.8627H457.055C457.574 64.2186 458.798 66.0795 460.731 67.4467C462.663 68.8126 465.066 69.4962 467.94 69.4962C469.92 69.4962 471.663 69.2133 473.172 68.6476C474.726 68.036 476.164 67.0931 477.483 65.8203L483.351 72.1821C479.769 76.2824 474.538 78.3319 467.657 78.3319C463.37 78.3319 459.576 77.5081 456.277 75.8581C452.978 74.1621 450.434 71.8286 448.642 68.8598C446.852 65.891 445.956 62.5215 445.956 58.7518C445.956 55.029 446.829 51.6832 448.572 48.7143C450.363 45.6982 452.79 43.3656 455.853 41.7162C458.963 40.0197 462.427 39.1714 466.244 39.1714C469.967 39.1714 473.337 39.9725 476.353 41.5748C479.369 43.177 481.725 45.4862 483.422 48.5022C485.165 51.471 486.037 54.9347 486.037 58.8939ZM466.315 47.5126C463.818 47.5126 461.72 48.2194 460.024 49.6332C458.327 51.047 457.291 52.9791 456.914 55.4296H475.646C475.268 53.0261 474.231 51.1176 472.535 49.7039C470.838 48.243 468.765 47.5126 466.315 47.5126Z" fill="black"/>
<path fill-rule="evenodd" clip-rule="evenodd" d="M78.0283 0.72897C76.3482 -0.24299 74.2766 -0.24299 72.5964 0.72897C60.6624 7.6324 52.6135 20.5488 52.6135 35.3517C52.6135 37.4614 52.777 39.5329 53.092 41.5541C44.8767 38.7641 35.9815 39.7793 28.716 43.9659C27.0342 44.9351 25.9984 46.7291 26 48.67C26.0086 58.9103 31.3282 68.8904 40.8552 74.3907C45.529 77.0896 50.6304 78.3719 55.6624 78.3743C54.8968 80.544 54.4803 82.8775 54.4803 85.3089C54.4803 96.814 63.8068 106.14 75.3116 106.14C86.8169 106.14 96.1428 96.814 96.1428 85.3089C96.1428 82.8717 95.7244 80.5334 94.956 78.3601C99.6879 78.2104 104.454 76.9258 108.843 74.3907C118.37 68.8904 123.689 58.9103 123.698 48.6705C123.7 46.7294 122.664 44.9355 120.982 43.9664C114.003 39.9447 105.519 38.8494 97.5807 41.2425C97.8647 39.3201 98.0108 37.3531 98.0108 35.3517C98.0108 20.5488 89.9624 7.6324 78.0283 0.72897ZM63.4614 35.3517C63.4614 25.7391 68.1158 17.2086 75.3123 11.8987C82.509 17.2086 87.1633 25.7391 87.1633 35.3517C87.1633 44.9642 82.509 53.4947 75.3123 58.8046C68.1158 53.4947 63.4614 44.9642 63.4614 35.3517ZM96.7038 53.3655C101.713 50.4736 107.501 50.1372 112.557 51.9671C111.614 57.2606 108.428 62.1042 103.419 64.9964C98.4104 67.8886 92.6225 68.2245 87.5664 66.3954C88.5093 61.1013 91.6949 56.2575 96.7038 53.3655ZM37.1418 51.9667C42.1976 50.1367 47.9853 50.4732 52.9943 53.3652C58.0034 56.2571 61.1886 61.1013 62.1318 66.3942C57.0759 68.2245 51.2882 67.8886 46.2792 64.9964C41.2702 62.1042 38.0849 57.2602 37.1418 51.9667ZM65.3283 85.3089C65.3283 79.7956 69.7979 75.3253 75.3116 75.3253C80.8253 75.3253 85.2953 79.7956 85.2953 85.3089C85.2953 90.8222 80.8253 95.2925 75.3116 95.2925C69.7979 95.2925 65.3283 90.8222 65.3283 85.3089Z" fill="black"/>
</svg>
