<?xml version="1.0" encoding="UTF-8"?>
<!-- Generator: Adobe Illustrator 27.0.0, SVG Export Plug-In . SVG Version: 6.00 Build 0)  -->
<svg version="1.1" id="Layer_1" xmlns="http://www.w3.org/2000/svg" xmlns:xlink="http://www.w3.org/1999/xlink" x="0px" y="0px" viewBox="0 0 144 144" style="enable-background:new 0 0 144 144;" xml:space="preserve">
<path d="M101.2,1C140,1,143,4,143,42.8v58.4c0,38.8-3,41.8-41.8,41.8H42.8C4,143,1,140,1,101.2V42.8C1,4,4,1,42.8,1H101.2z   M47.3,111.1V53.3h-18v57.8H47.3z M38.3,45c5.8,0,10.5-4.7,10.5-10.5c0-5.8-4.7-10.5-10.5-10.5c-5.8,0-10.5,4.7-10.5,10.5  S32.5,45,38.3,45z M114.6,111.1V79.4c0-15.6-3.4-27.5-21.5-27.5c-8.7,0-14.6,4.8-17,9.3h-0.2v-7.9H58.6v57.8h17.9V82.5  c0-7.5,1.4-14.8,10.8-14.8c9.2,0,9.3,8.6,9.3,15.3v28.1H114.6z"/>
</svg>